<svg width="33" height="22" viewBox="0 0 33 22" fill="none" xmlns="http://www.w3.org/2000/svg">
<g clip-path="url(#clip0_36_28)">
<path d="M9.55009 -2.7404e-05C10.4416 -0.0167653 11.3318 0.0756593 12.2013 0.275231C12.9334 0.436864 13.6285 0.737637 14.2496 1.16156C14.8232 1.58311 15.2771 2.14984 15.5657 2.80485C15.8973 3.61031 16.0573 4.47742 16.0352 5.34961C16.0729 6.3073 15.831 7.25502 15.3398 8.07467C14.8229 8.8488 14.1086 9.46705 13.2724 9.86384C14.4071 10.1732 15.3955 10.8818 16.0597 11.8622C16.6974 12.901 17.0179 14.107 16.9811 15.3291C17.0021 16.3035 16.8029 17.2699 16.3986 18.1546C16.0249 18.9264 15.4777 19.599 14.8008 20.1186C14.1039 20.6324 13.3197 21.0126 12.4871 21.2403C11.6237 21.4818 10.7317 21.6031 9.8359 21.6008H0V-2.7404e-05H9.55009ZM8.98256 8.73666C9.683 8.76586 10.3725 8.55382 10.9383 8.13522C11.2093 7.89129 11.4201 7.58664 11.5538 7.24563C11.6876 6.90462 11.7406 6.53669 11.7086 6.17126C11.7268 5.74445 11.6427 5.31952 11.4636 4.9326C11.3117 4.62453 11.0755 4.36705 10.7831 4.19078C10.487 3.99674 10.1543 3.86693 9.80596 3.80954C9.42805 3.73551 9.0435 3.70184 8.65864 3.70908H4.45589V8.75593H8.98256V8.73666ZM9.22753 17.933C9.65113 17.9388 10.0739 17.8926 10.4865 17.7954C10.8635 17.7112 11.2211 17.5547 11.5399 17.3343C11.8522 17.1141 12.1045 16.8178 12.2734 16.4728C12.4694 16.0329 12.5594 15.5523 12.5361 15.0704C12.5786 14.6312 12.5211 14.188 12.368 13.7748C12.2149 13.3617 11.9702 12.9894 11.6528 12.6866C10.9801 12.1855 10.1556 11.9373 9.32144 11.9847H4.45589V17.933H9.22753Z" fill="#FFFFFF"/>
<path d="M23.3274 17.8531C23.6772 18.1809 24.0891 18.4334 24.5384 18.5952C24.9876 18.7571 25.4646 18.8248 25.9405 18.7945C26.695 18.8138 27.4348 18.5816 28.046 18.1339C28.5432 17.8069 28.9197 17.3231 29.1171 16.7576H32.6706C32.292 18.3676 31.3674 19.7925 30.0575 20.7846C28.8009 21.628 27.316 22.0552 25.8085 22.0067C24.7326 22.021 23.6649 21.8165 22.6687 21.4053C21.7676 21.0253 20.9594 20.4508 20.3006 19.7221C19.6443 18.9585 19.1401 18.0739 18.8157 17.1168C18.4517 16.047 18.2735 14.9216 18.289 13.7903C18.2824 12.678 18.4666 11.573 18.8334 10.5244C19.3263 9.04913 20.2686 7.7697 21.5251 6.86967C22.7817 5.96964 24.2879 5.49528 25.8276 5.51466C26.9643 5.49064 28.0884 5.75966 29.094 6.29639C30.0029 6.8004 30.7869 7.50623 31.3872 8.36083C32.0013 9.25756 32.4414 10.264 32.6843 11.3267C32.9506 12.4679 33.0456 13.6431 32.966 14.8129H22.3815C22.2958 15.9119 22.6348 17.0017 23.3274 17.8531ZM27.9711 9.63803C27.6749 9.33844 27.3187 9.10652 26.9264 8.9579C26.5341 8.80929 26.1148 8.74742 25.6969 8.77647C25.1424 8.75509 24.592 8.87932 24.0991 9.13706C23.7084 9.35458 23.3635 9.64725 23.0838 9.99862C22.836 10.328 22.6513 10.7015 22.5394 11.0996C22.4386 11.4317 22.3756 11.7743 22.3516 12.1209H28.9075C28.8504 11.2175 28.525 10.3527 27.9739 9.6394L27.9711 9.63803Z" fill="#fff"/>
<path d="M29.7214 1.44238H21.5064V3.566H29.7214V1.44238Z" fill="#ffffff"/>
</g>
<defs>
<clipPath id="clip0_36_28">
<rect width="33" height="22" fill="white"/>
</clipPath>
</defs>
</svg>
