<svg width="22" height="22" viewBox="0 0 22 22" fill="none" xmlns="http://www.w3.org/2000/svg">
<g clip-path="url(#clip0_36_33)">
<path fill-rule="evenodd" clip-rule="evenodd" d="M0 11C0 4.91562 4.91562 0 11 0C17.0844 0 22 4.91562 22 11C22 17.0844 17.0844 22 11 22H10.1062V21.9656C4.46875 21.5188 0 16.775 0 11ZM11.275 20.2125C16.225 20.075 20.2125 15.9844 20.2125 11C20.2125 5.9125 16.0875 1.7875 11 1.7875C5.9125 1.7875 1.7875 5.9125 1.7875 11C1.7875 16.0875 5.9125 20.2125 11 20.2125H11.275Z" fill="#FFFFFF"/>
<path fill-rule="evenodd" clip-rule="evenodd" d="M6.53126 2.95615C6.39376 2.92178 6.29064 2.8874 6.15314 2.81865L6.73751 1.13428C6.80626 1.16865 6.87501 1.16865 7.01251 1.20303C7.21876 1.27178 7.45939 1.34053 7.59689 1.40928C7.63126 1.40928 7.66564 1.44365 7.73439 1.44365C7.97501 1.54678 8.25001 1.6499 8.49064 1.75303L8.52501 1.7874C8.62814 1.85615 8.80001 1.9249 8.93751 1.99365C9.00626 2.02803 9.07501 2.0624 9.14376 2.09678H9.17814H9.21251C9.24689 2.13115 9.35001 2.16553 9.45314 2.23428H9.48751C9.48751 2.23428 9.52189 2.23428 9.52189 2.26865C9.52189 2.26865 9.55626 2.26865 9.55626 2.30303C9.55626 2.30303 9.55626 2.30303 9.59064 2.30303C9.59064 2.30303 9.59064 2.30303 9.62501 2.30303C9.62501 2.30303 9.65939 2.30303 9.65939 2.3374C9.72814 2.37178 9.83126 2.44053 9.90001 2.4749C10.0031 2.54365 10.1406 2.6124 10.2438 2.68115C10.3469 2.7499 10.4844 2.85303 10.5875 2.8874L10.6219 2.92178C10.6906 2.95615 10.7594 2.99053 10.7938 3.0249C10.8625 3.05928 10.9313 3.12803 11 3.1624C11.0344 3.19678 11.0688 3.19678 11.0688 3.23115C11.1031 3.26553 11.1375 3.26553 11.1719 3.2999C11.2063 3.33428 11.2063 3.33428 11.2406 3.33428C11.2406 3.33428 11.2406 3.33428 11.275 3.33428H11.3094H11.3438C12.3406 4.09053 13.2 4.9499 13.9563 5.94678C14.7813 7.04678 15.4344 8.2499 15.8813 9.55615C17.2219 13.3374 16.8438 17.6687 14.7125 21.1062L13.2 20.178C15.0219 17.2218 15.3656 13.4405 14.1969 10.1405C13.8188 9.04053 13.2344 7.9749 12.5125 7.04678C11.8594 6.1874 11.1031 5.43115 10.2438 4.77803C10.2094 4.74365 10.1406 4.70928 10.1063 4.6749C10.0719 4.64053 10.0375 4.60615 10.0031 4.60615C9.96876 4.57178 9.96876 4.57178 9.93439 4.5374C9.86564 4.50303 9.83126 4.43428 9.76251 4.3999C9.72814 4.36553 9.69376 4.36553 9.69376 4.36553H9.65939V4.46865C9.62501 4.43428 9.55626 4.3999 9.52189 4.3999C9.45314 4.33115 9.38439 4.29678 9.31564 4.2624L9.28126 4.22803L9.24689 4.19365C9.24689 4.19365 9.21251 4.19365 9.17814 4.15928C9.14376 4.1249 9.07501 4.09053 9.00626 4.05615C8.93751 4.02178 8.83439 3.95303 8.80001 3.91865C8.76564 3.91865 8.73126 3.88428 8.73126 3.88428L8.69689 3.8499C8.66251 3.8499 8.66251 3.81553 8.62814 3.81553C8.62814 3.81553 8.59376 3.78115 8.55939 3.78115C8.52501 3.74678 8.49064 3.74678 8.42189 3.7124C8.35314 3.67803 8.28439 3.64365 8.21564 3.60928C8.07814 3.54053 7.94064 3.47178 7.80314 3.4374L7.76876 3.40303C7.59689 3.33428 7.39064 3.26553 7.18439 3.1624C7.08126 3.12803 7.04689 3.09365 6.97814 3.09365C6.84064 3.0249 6.70314 2.99053 6.53126 2.95615Z" fill="#FFFFFF"/>
<path fill-rule="evenodd" clip-rule="evenodd" d="M10.3125 7.18428C12.9938 6.70303 15.5031 5.19053 17.1875 3.0249L18.5969 4.1249C16.6031 6.63428 13.75 8.3874 10.6219 8.9374C9.07502 9.2124 7.4594 9.2124 5.91252 8.9374C4.36565 8.6624 2.85315 8.1124 1.47815 7.2874L2.40627 5.7749C3.57502 6.4624 4.88127 6.97803 6.2219 7.21865C7.56252 7.4249 8.93752 7.4249 10.3125 7.18428Z" fill="#FFFFFF"/>
<path fill-rule="evenodd" clip-rule="evenodd" d="M5.53436 20.0406C7.04686 12.2719 14.9875 7.97498 21.45 9.7281L20.9687 11.4469C15.4687 9.93435 8.59374 13.6469 7.25311 20.3844L5.53436 20.0406Z" fill="#FFFFFF"/>
</g>
<defs>
<clipPath id="clip0_36_33">
<rect width="22" height="22" fill="white"/>
</clipPath>
</defs>
</svg>
