<svg width="23" height="23" viewBox="0 0 23 23" fill="none" xmlns="http://www.w3.org/2000/svg">
<path fill-rule="evenodd" clip-rule="evenodd" d="M11.5342 0.751465C5.34325 0.751465 0.338501 5.79311 0.338501 12.0303C0.338501 17.016 3.54522 21.2364 7.99378 22.7301C8.54997 22.8424 8.75369 22.4874 8.75369 22.1888C8.75369 21.9273 8.73536 21.031 8.73536 20.0972C5.621 20.7695 4.97246 18.7527 4.97246 18.7527C4.47196 17.4455 3.73038 17.1095 3.73038 17.1095C2.71105 16.4186 3.80463 16.4186 3.80463 16.4186C4.93534 16.4933 5.52865 17.5764 5.52865 17.5764C6.52941 19.2942 8.14205 18.8088 8.79082 18.51C8.8834 17.7817 9.18017 17.2775 9.49528 16.9975C7.01135 16.736 4.39794 15.765 4.39794 11.4327C4.39794 10.2002 4.84252 9.19187 5.54698 8.40766C5.43583 8.12762 5.04648 6.96965 5.65835 5.4198C5.65835 5.4198 6.60366 5.12097 8.73513 6.57754C9.64769 6.33066 10.5888 6.20506 11.5342 6.204C12.4795 6.204 13.4431 6.33486 14.333 6.57754C16.4647 5.12097 17.41 5.4198 17.41 5.4198C18.0218 6.96965 17.6323 8.12762 17.5211 8.40766C18.2441 9.19187 18.6704 10.2002 18.6704 11.4327C18.6704 15.765 16.057 16.7172 13.5545 16.9975C13.9624 17.3522 14.3144 18.0244 14.3144 19.0888C14.3144 20.6013 14.2961 21.8152 14.2961 22.1885C14.2961 22.4874 14.5 22.8424 15.056 22.7303C19.5045 21.2361 22.7113 17.016 22.7113 12.0303C22.7296 5.79311 17.7065 0.751465 11.5342 0.751465Z" fill="#FFFFFF"/>
</svg>
