<svg width="22" height="26" viewBox="0 0 26 26" fill="none" xmlns="http://www.w3.org/2000/svg">
<path d="M13 7.22222C11.8573 7.22222 10.7402 7.56108 9.79004 8.19595C8.83989 8.83082 8.09934 9.73319 7.66203 10.7889C7.22472 11.8447 7.1103 13.0064 7.33324 14.1272C7.55618 15.248 8.10646 16.2775 8.91449 17.0855C9.72253 17.8935 10.752 18.4438 11.8728 18.6668C12.9936 18.8897 14.1553 18.7753 15.2111 18.338C16.2668 17.9007 17.1692 17.1601 17.804 16.21C18.4389 15.2598 18.7778 14.1427 18.7778 13C18.7762 11.4681 18.1669 9.99945 17.0837 8.91625C16.0005 7.83306 14.5319 7.22382 13 7.22222ZM13 15.8889C12.4286 15.8889 11.8701 15.7195 11.395 15.402C10.9199 15.0846 10.5497 14.6334 10.331 14.1055C10.1124 13.5777 10.0552 12.9968 10.1666 12.4364C10.2781 11.876 10.5532 11.3613 10.9572 10.9572C11.3613 10.5532 11.876 10.2781 12.4364 10.1666C12.9968 10.0552 13.5777 10.1124 14.1055 10.331C14.6334 10.5497 15.0846 10.9199 15.402 11.395C15.7195 11.8701 15.8889 12.4286 15.8889 13C15.8889 13.7662 15.5845 14.501 15.0428 15.0428C14.501 15.5845 13.7662 15.8889 13 15.8889ZM18.7778 0H7.22222C5.30745 0.00223 3.47175 0.763857 2.1178 2.1178C0.763857 3.47175 0.00223 5.30745 0 7.22222V18.7778C0.00223 20.6925 0.763857 22.5283 2.1178 23.8822C3.47175 25.2361 5.30745 25.9978 7.22222 26H18.7778C20.6925 25.9978 22.5283 25.2361 23.8822 23.8822C25.2361 22.5283 25.9978 20.6925 26 18.7778V7.22222C25.9978 5.30745 25.2361 3.47175 23.8822 2.1178C22.5283 0.763857 20.6925 0.00223 18.7778 0ZM23.1111 18.7778C23.1111 19.927 22.6546 21.0292 21.8419 21.8419C21.0292 22.6546 19.927 23.1111 18.7778 23.1111H7.22222C6.07295 23.1111 4.97075 22.6546 4.15809 21.8419C3.34544 21.0292 2.88889 19.927 2.88889 18.7778V7.22222C2.88889 6.07295 3.34544 4.97075 4.15809 4.15809C4.97075 3.34544 6.07295 2.88889 7.22222 2.88889H18.7778C19.927 2.88889 21.0292 3.34544 21.8419 4.15809C22.6546 4.97075 23.1111 6.07295 23.1111 7.22222V18.7778ZM21.1852 6.74074C21.1852 7.12165 21.0722 7.49401 20.8606 7.81073C20.649 8.12744 20.3482 8.3743 19.9963 8.52006C19.6444 8.66583 19.2571 8.70397 18.8835 8.62966C18.5099 8.55535 18.1668 8.37192 17.8974 8.10258C17.6281 7.83323 17.4447 7.49006 17.3703 7.11647C17.296 6.74288 17.3342 6.35564 17.4799 6.00372C17.6257 5.6518 17.8726 5.35102 18.1893 5.13939C18.506 4.92777 18.8783 4.81481 19.2593 4.81481C19.77 4.81481 20.2599 5.01772 20.6211 5.37891C20.9823 5.74009 21.1852 6.22995 21.1852 6.74074Z" fill="#F4F4F4"/>
</svg>
