<svg width="26" height="22" viewBox="0 0 26 22" fill="none" xmlns="http://www.w3.org/2000/svg">
<g clip-path="url(#clip0_36_16)">
<path d="M24.7242 20.5799C24.7799 20.5804 24.8353 20.5696 24.8867 20.5481C24.9381 20.5265 24.9844 20.4947 25.0229 20.4546C25.0614 20.4146 25.0912 20.3671 25.1105 20.3151C25.1297 20.2631 25.1379 20.2078 25.1347 20.1525C25.1347 19.8494 24.9505 19.7046 24.5725 19.7046H23.9617V21.2915H24.1915V20.5997H24.4737L24.4802 20.6082L24.9183 21.2915H25.1639L24.6926 20.5842L24.7242 20.5799ZM24.4585 20.4209H24.1921V19.8844H24.5297C24.7041 19.8844 24.903 19.9127 24.903 20.1394C24.903 20.4 24.7018 20.4209 24.4571 20.4209" fill="#0F0F0F"/>
<path d="M18.7318 18.5911H15.4743V13.528C15.4743 12.3207 15.4526 10.7665 13.7801 10.7665C12.0835 10.7665 11.8239 12.0819 11.8239 13.4401V18.5907H8.56647V8.17909H11.6936V9.60195H11.7374C12.0504 9.07088 12.5026 8.63399 13.0459 8.33782C13.5893 8.04165 14.2034 7.89729 14.8229 7.92011C18.1244 7.92011 18.7332 10.0755 18.7332 12.8794L18.7318 18.5911ZM4.89097 6.75589C4.5171 6.75595 4.15159 6.64599 3.84069 6.43989C3.52978 6.23379 3.28746 5.94081 3.14432 5.59801C3.00118 5.25522 2.96367 4.87799 3.03654 4.51404C3.10942 4.15009 3.2894 3.81576 3.55372 3.55332C3.81805 3.29089 4.15484 3.11214 4.52152 3.03968C4.8882 2.96723 5.26828 3.00431 5.61373 3.14625C5.95917 3.2882 6.25444 3.52861 6.46221 3.83711C6.66998 4.14561 6.78092 4.50832 6.78099 4.87939C6.78103 5.12577 6.73217 5.36975 6.63721 5.59739C6.54226 5.82504 6.40307 6.03189 6.22756 6.20614C6.05206 6.38038 5.84368 6.51862 5.61435 6.61294C5.38502 6.70727 5.13922 6.75584 4.89097 6.75589ZM6.5197 18.5911H3.25885V8.17909H6.5197V18.5911ZM20.3558 0.00124243H1.62198C1.19678 -0.00351999 0.787042 0.159457 0.482848 0.454359C0.178653 0.749261 0.00488421 1.15196 -0.000305176 1.57397V20.2443C0.0047066 20.6665 0.178374 21.0695 0.482558 21.3647C0.786742 21.6599 1.19657 21.8232 1.62198 21.8187H20.3558C20.782 21.824 21.193 21.6612 21.4984 21.366C21.8038 21.0708 21.9786 20.6674 21.9845 20.2443V1.57262C21.9784 1.14978 21.8035 0.746619 21.4981 0.451724C21.1927 0.156829 20.7818 -0.00568203 20.3558 -0.000105206" fill="#0F0F0F"/>
<path d="M24.4864 18.9976C24.09 19.0013 23.7113 19.1607 23.4331 19.4409C23.1549 19.721 22.9998 20.0991 23.0017 20.4925C23.0036 20.8859 23.1624 21.2625 23.4433 21.54C23.7242 21.8174 24.1044 21.9732 24.5008 21.9732C24.8971 21.9732 25.2773 21.8174 25.5582 21.54C25.8392 21.2625 25.998 20.8859 25.9999 20.4925C26.0018 20.0991 25.8467 19.721 25.5684 19.4409C25.2902 19.1607 24.9115 19.0013 24.5152 18.9976H24.4864ZM24.4864 21.8029C24.2264 21.8072 23.971 21.7349 23.7525 21.5951C23.5339 21.4553 23.362 21.2544 23.2586 21.0177C23.1551 20.7809 23.1246 20.5191 23.1711 20.2652C23.2176 20.0113 23.3389 19.7768 23.5196 19.5914C23.7004 19.4059 23.9325 19.2778 24.1866 19.2232C24.4407 19.1687 24.7054 19.1901 24.9472 19.2849C25.1891 19.3797 25.3971 19.5435 25.5452 19.7556C25.6932 19.9677 25.7745 20.2187 25.7788 20.4767C25.7788 20.4841 25.7788 20.4911 25.7788 20.4986C25.7861 20.837 25.6576 21.1645 25.4217 21.4089C25.1857 21.6534 24.8616 21.7949 24.5206 21.8022H24.4867" fill="#0F0F0F"/>
</g>
<defs>
<clipPath id="clip0_36_16">
<rect width="26" height="22" fill="white"/>
</clipPath>
</defs>
</svg>
