<svg width="74" height="30" viewBox="0 0 74 30" fill="none" xmlns="http://www.w3.org/2000/svg">
<path d="M3.54688 24.3125C2.73438 24.3125 2.04167 24.0365 1.46875 23.4844C0.90625 22.9219 0.625 22.2396 0.625 21.4375C0.625 20.6458 0.90625 19.974 1.46875 19.4219C2.04167 18.8698 2.73438 18.5938 3.54688 18.5938C4.36979 18.5938 5.0625 18.8698 5.625 19.4219C6.19792 19.9635 6.48438 20.6354 6.48438 21.4375C6.48438 22.2396 6.19792 22.9219 5.625 23.4844C5.0625 24.0365 4.36979 24.3125 3.54688 24.3125ZM17.0169 7.96875C17.3398 7.96875 17.845 8.03125 18.5325 8.15625V12.25C17.8971 12.1042 17.3502 12.0312 16.8919 12.0312C15.7356 12.0312 14.7877 12.3906 14.0481 13.1094C13.319 13.8177 12.9544 14.8646 12.9544 16.25V24H8.43875V8.28125H12.9544V10.0781C13.9231 8.67188 15.2773 7.96875 17.0169 7.96875ZM19.7213 1.48438C20.2629 0.942708 20.9088 0.671875 21.6588 0.671875C22.4088 0.671875 23.0546 0.942708 23.5963 1.48438C24.1379 2.01562 24.4088 2.65104 24.4088 3.39062C24.4088 4.14062 24.1379 4.78646 23.5963 5.32812C23.0546 5.86979 22.4088 6.14062 21.6588 6.14062C20.9088 6.14062 20.2629 5.86979 19.7213 5.32812C19.1796 4.78646 18.9088 4.14062 18.9088 3.39062C18.9088 2.65104 19.1796 2.01562 19.7213 1.48438ZM19.4088 8.28125H23.9244V24H19.4088V8.28125ZM33.3475 24.3125C31.0246 24.3125 29.0819 23.5365 27.5194 21.9844C25.9569 20.4323 25.1756 18.4896 25.1756 16.1562C25.1756 13.8229 25.9569 11.875 27.5194 10.3125C29.0819 8.75 31.0246 7.96875 33.3475 7.96875C35.3162 7.96875 37.035 8.56771 38.5037 9.76562C39.9725 10.9635 40.811 12.4635 41.0194 14.2656H36.4412C36.285 13.6823 35.9152 13.2083 35.3319 12.8438C34.759 12.4688 34.0975 12.2812 33.3475 12.2812C32.2746 12.2812 31.3787 12.651 30.66 13.3906C29.9517 14.1198 29.5975 15.0417 29.5975 16.1562C29.5975 17.2396 29.9517 18.151 30.66 18.8906C31.3787 19.6302 32.2746 20 33.3475 20C34.0975 20 34.7642 19.8021 35.3475 19.4062C35.9412 19.0104 36.3162 18.5052 36.4725 17.8906H41.0506C40.936 19.1198 40.5194 20.2292 39.8006 21.2188C39.0819 22.1979 38.1548 22.9583 37.0194 23.5C35.8944 24.0417 34.6704 24.3125 33.3475 24.3125ZM58.0988 24H52.3175L46.6144 16.9531V24H42.0988V1.59375H46.6144V14.7812L52.0519 8.28125H57.5988L51.0675 15.875L58.0988 24ZM68.975 8.28125H73.8344L65.1 29.2188H60.2719L63.1781 22.7188L57.1312 8.28125H62.0062L65.4906 17.4688L68.975 8.28125Z" fill="black"/>
</svg>
