<svg width="400" height="60" viewBox="0 0 400 60" fill="none" xmlns="http://www.w3.org/2000/svg">
<path d="M20.2812 20.8125C18.7188 20.5417 17.6458 20.4062 17.0625 20.4062C14.5 20.4062 12.3542 21.5729 10.625 23.9062C8.91667 26.2396 8.0625 29.75 8.0625 34.4375V46.6562H0V13.4375H8.0625V19.5312C8.79167 17.6562 10.125 16.0938 12.0625 14.8438C14 13.5729 15.9896 12.9375 18.0312 12.9375C18.7812 12.9375 19.5312 13 20.2812 13.125V20.8125ZM21.3 46.6562V13.4375H29.3625V46.6562H21.3ZM20.9562 0H29.7375V8.4375H20.9562V0ZM48.0687 47.1562C43.1729 47.1562 39.1729 45.5729 36.0687 42.4062C32.9646 39.2396 31.4125 35.1146 31.4125 30.0312C31.4125 24.9688 32.9646 20.8542 36.0687 17.6875C39.1729 14.5208 43.1729 12.9375 48.0687 12.9375C52.2771 12.9375 55.7458 14.0417 58.475 16.25C61.225 18.4375 62.8708 21.5938 63.4125 25.7188H55.5375C55.225 24.0104 54.3917 22.6146 53.0375 21.5312C51.6833 20.4479 50.0687 19.9062 48.1937 19.9062C45.6312 19.9062 43.5687 20.8333 42.0062 22.6875C40.4646 24.5208 39.6937 26.9688 39.6937 30.0312C39.6937 33.1354 40.4646 35.6042 42.0062 37.4375C43.5687 39.2708 45.6312 40.1875 48.1937 40.1875C50.1104 40.1875 51.7146 39.6667 53.0062 38.625C54.2979 37.5625 55.1208 36.0833 55.475 34.1875H63.4125C62.7875 38.4792 61.1208 41.7188 58.4125 43.9062C55.7042 46.0729 52.2562 47.1562 48.0687 47.1562ZM65.2125 46.6562V0H73.275V25.2188L85.3063 13.4375H96.3688L82.8688 26.4375L97.3375 46.6562H87.3375L77.3688 31.875L73.275 35.7812V46.6562H65.2125ZM118.575 13.4375H126.7L113.012 48.9062C112.596 50.0104 112.148 51.0104 111.669 51.9062C111.19 52.8229 110.575 53.7396 109.825 54.6562C109.096 55.5938 108.283 56.375 107.387 57C106.492 57.625 105.408 58.1354 104.137 58.5312C102.887 58.9271 101.512 59.125 100.012 59.125C98.3667 59.125 96.8354 58.8958 95.4187 58.4375V51.5312C96.5229 51.9479 97.7104 52.1562 98.9812 52.1562C100.71 52.1562 102.085 51.6979 103.106 50.7812C104.148 49.8854 105.127 48.25 106.044 45.875L106.169 45.625L93.1687 13.4375H102.075L110.2 35.0625L118.575 13.4375ZM122.594 38.0938H131.562V46.6562H122.594V38.0938ZM148.613 47.1562C143.717 47.1562 139.842 45.5833 136.988 42.4375C134.154 39.2917 132.738 35.1562 132.738 30.0312C132.738 24.9271 134.154 20.8021 136.988 17.6562C139.842 14.5104 143.675 12.9375 148.488 12.9375C150.508 12.9375 152.363 13.3229 154.05 14.0938C155.758 14.8646 157.102 15.9062 158.081 17.2188V0H166.144V46.6562H158.081V42.75C157.29 44.0417 156.029 45.1042 154.3 45.9375C152.592 46.75 150.696 47.1562 148.613 47.1562ZM149.769 40.1875C152.435 40.1875 154.571 39.2604 156.175 37.4062C157.8 35.5521 158.613 33.0938 158.613 30.0312C158.613 26.9896 157.8 24.5417 156.175 22.6875C154.571 20.8333 152.435 19.9062 149.769 19.9062C147.123 19.9062 144.988 20.8333 143.363 22.6875C141.758 24.5417 140.956 26.9896 140.956 30.0312C140.956 33.0729 141.758 35.5312 143.363 37.4062C144.988 39.2604 147.123 40.1875 149.769 40.1875ZM185.194 47.1562C180.277 47.1562 176.215 45.5417 173.006 42.3125C169.819 39.0833 168.225 34.9896 168.225 30.0312C168.225 25.0938 169.819 21.0104 173.006 17.7812C176.215 14.5521 180.277 12.9375 185.194 12.9375C190.09 12.9375 194.142 14.5625 197.35 17.8125C200.558 21.0417 202.163 25.1146 202.163 30.0312C202.163 33.2812 201.433 36.2188 199.975 38.8438C198.517 41.4479 196.496 43.4896 193.913 44.9688C191.329 46.4271 188.423 47.1562 185.194 47.1562ZM185.194 40.1875C187.798 40.1875 189.913 39.25 191.538 37.375C193.163 35.5 193.975 33.0521 193.975 30.0312C193.975 27.0312 193.152 24.5938 191.506 22.7188C189.881 20.8438 187.777 19.9062 185.194 19.9062C182.569 19.9062 180.454 20.8438 178.85 22.7188C177.267 24.5938 176.475 27.0312 176.475 30.0312C176.475 33.0729 177.267 35.5312 178.85 37.4062C180.433 39.2604 182.548 40.1875 185.194 40.1875ZM204.275 46.6562V13.4375H212.337V18.625C213.254 16.8542 214.525 15.4688 216.15 14.4688C217.775 13.4479 219.702 12.9375 221.931 12.9375C224.556 12.9375 226.754 13.4792 228.525 14.5625C230.317 15.625 231.577 17.1667 232.306 19.1875C233.244 17.3542 234.681 15.8542 236.619 14.6875C238.556 13.5208 240.785 12.9375 243.306 12.9375C246.827 12.9375 249.671 13.9792 251.837 16.0625C254.004 18.125 255.087 20.8125 255.087 24.125V46.6562H247.025V26.375C247.025 24.3542 246.483 22.75 245.4 21.5625C244.337 20.375 242.848 19.7812 240.931 19.7812C238.64 19.7812 236.858 20.6875 235.587 22.5C234.337 24.2917 233.712 26.7083 233.712 29.75V46.6562H225.65V26.375C225.65 24.3542 225.108 22.75 224.025 21.5625C222.962 20.375 221.473 19.7812 219.556 19.7812C217.306 19.7812 215.535 20.6979 214.244 22.5312C212.973 24.3646 212.337 26.7917 212.337 29.8125V46.6562H204.275ZM258.638 46.6562V13.4375H266.7V46.6562H258.638ZM258.294 0H267.075V8.4375H258.294V0ZM270.5 46.6562V13.4375H278.562V18.5625C279.688 16.8125 281.167 15.4375 283 14.4375C284.833 13.4375 286.896 12.9375 289.188 12.9375C292.771 12.9375 295.667 14.0312 297.875 16.2188C300.104 18.4062 301.219 21.3021 301.219 24.9062V46.6562H293.219V26.75C293.219 24.7708 292.635 23.1667 291.469 21.9375C290.302 20.7083 288.75 20.0938 286.812 20.0938C284.188 20.0938 282.156 21.1458 280.719 23.25C279.281 25.3542 278.562 28.2917 278.562 32.0625V46.6562H270.5ZM319.831 59.125C315.248 59.125 311.54 58.1042 308.706 56.0625C305.873 54.0417 304.206 51.1146 303.706 47.2812H311.831C312.06 48.9479 312.873 50.2604 314.269 51.2188C315.685 52.1979 317.54 52.6875 319.831 52.6875C322.331 52.6875 324.3 52.0312 325.737 50.7188C327.175 49.4062 327.894 47.6042 327.894 45.3125V41.1562C327.081 42.3021 325.842 43.2292 324.175 43.9375C322.508 44.6458 320.654 45 318.612 45C313.862 45 310.081 43.5417 307.269 40.625C304.456 37.6875 303.05 33.8125 303.05 29C303.05 24.1667 304.446 20.2812 307.237 17.3438C310.029 14.4062 313.758 12.9375 318.425 12.9375C320.404 12.9375 322.237 13.3125 323.925 14.0625C325.612 14.8125 326.935 15.8229 327.894 17.0938V13.4375H335.956V44.4688C335.956 48.9896 334.498 52.5625 331.581 55.1875C328.685 57.8125 324.769 59.125 319.831 59.125ZM313.612 35.625C315.175 37.2708 317.248 38.0938 319.831 38.0938C322.415 38.0938 324.477 37.2708 326.019 35.625C327.56 33.9583 328.331 31.75 328.331 29C328.331 26.2708 327.56 24.0729 326.019 22.4062C324.477 20.7396 322.415 19.9062 319.831 19.9062C317.248 19.9062 315.175 20.7396 313.612 22.4062C312.05 24.0521 311.269 26.25 311.269 29C311.269 31.75 312.05 33.9583 313.612 35.625ZM354.819 47.1562C349.902 47.1562 345.84 45.5417 342.631 42.3125C339.444 39.0833 337.85 34.9896 337.85 30.0312C337.85 25.0938 339.444 21.0104 342.631 17.7812C345.84 14.5521 349.902 12.9375 354.819 12.9375C359.715 12.9375 363.767 14.5625 366.975 17.8125C370.183 21.0417 371.788 25.1146 371.788 30.0312C371.788 33.2812 371.058 36.2188 369.6 38.8438C368.142 41.4479 366.121 43.4896 363.538 44.9688C360.954 46.4271 358.048 47.1562 354.819 47.1562ZM354.819 40.1875C357.423 40.1875 359.538 39.25 361.163 37.375C362.788 35.5 363.6 33.0521 363.6 30.0312C363.6 27.0312 362.777 24.5938 361.131 22.7188C359.506 20.8438 357.402 19.9062 354.819 19.9062C352.194 19.9062 350.079 20.8438 348.475 22.7188C346.892 24.5938 346.1 27.0312 346.1 30.0312C346.1 33.0729 346.892 35.5312 348.475 37.4062C350.058 39.2604 352.173 40.1875 354.819 40.1875ZM386.306 47.1562C382.056 47.1562 378.587 46.0417 375.9 43.8125C373.233 41.5833 371.817 38.6875 371.65 35.125H379.525C379.629 36.4583 380.306 37.6562 381.556 38.7188C382.827 39.7812 384.41 40.3125 386.306 40.3125C387.91 40.3125 389.212 40 390.212 39.375C391.233 38.7292 391.744 37.8958 391.744 36.875C391.744 35.1875 390.546 34.1146 388.15 33.6562L382.962 32.5625C381.567 32.2708 380.327 31.8958 379.244 31.4375C378.16 30.9583 377.14 30.3438 376.181 29.5938C375.223 28.8229 374.483 27.8333 373.962 26.625C373.442 25.4167 373.181 24.0312 373.181 22.4688C373.181 19.7812 374.317 17.5208 376.587 15.6875C378.858 13.8542 381.858 12.9375 385.587 12.9375C389.254 12.9375 392.348 13.8854 394.869 15.7812C397.41 17.6771 398.89 20.25 399.306 23.5H391.431C391.244 22.2292 390.577 21.2292 389.431 20.5C388.306 19.7708 387.025 19.4062 385.587 19.4062C384.275 19.4062 383.212 19.6875 382.4 20.25C381.587 20.7917 381.181 21.5312 381.181 22.4688C381.181 23.9896 382.379 24.9896 384.775 25.4688L389.962 26.5625C391.504 26.875 392.827 27.2604 393.931 27.7188C395.035 28.1562 396.067 28.75 397.025 29.5C397.983 30.25 398.702 31.2292 399.181 32.4375C399.681 33.625 399.931 35.0417 399.931 36.6875C399.931 39.625 398.66 42.1042 396.119 44.125C393.598 46.1458 390.327 47.1562 386.306 47.1562Z" fill="#F4F4F4"/>
</svg>
