<svg width="1204" height="160" viewBox="0 0 1204 160" fill="none" xmlns="http://www.w3.org/2000/svg">
<mask id="path-1-outside-1_1805_10" maskUnits="userSpaceOnUse" x="-0.582031" y="-0.266113" width="1205" height="184" fill="black">
<rect fill="white" x="-0.582031" y="-0.266113" width="1205" height="184"/>
<path d="M63.7382 65.3299C59.0584 64.5188 55.8449 64.1132 54.0978 64.1132C46.4229 64.1132 39.996 67.6074 34.817 74.596C29.7004 81.5845 27.1421 92.0984 27.1421 106.138V142.734H2.99432V43.2413H27.1421V61.4925C29.326 55.8767 33.3194 51.1969 39.1224 47.4531C44.9254 43.6469 50.8843 41.7437 56.9993 41.7437C59.2456 41.7437 61.4919 41.9309 63.7382 42.3053V65.3299ZM66.7894 142.734V43.2413H90.9372V142.734H66.7894ZM65.7598 2.99496H92.0603V28.2659H65.7598V2.99496ZM146.964 144.231C132.3 144.231 120.32 139.489 111.023 130.005C101.726 120.52 97.0771 108.166 97.0771 92.9408C97.0771 77.7782 101.726 65.4547 111.023 55.9703C120.32 46.4859 132.3 41.7437 146.964 41.7437C159.568 41.7437 169.957 45.0508 178.131 51.6649C186.368 58.2166 191.297 67.6698 192.919 80.0245H169.333C168.397 74.9079 165.901 70.7273 161.846 67.4827C157.79 64.238 152.954 62.6157 147.338 62.6157C139.663 62.6157 133.486 65.3923 128.806 70.9457C124.189 76.4367 121.88 83.7684 121.88 92.9408C121.88 102.238 124.189 109.632 128.806 115.123C133.486 120.614 139.663 123.36 147.338 123.36C153.079 123.36 157.883 121.8 161.752 118.68C165.621 115.497 168.085 111.067 169.146 105.389H192.919C191.048 118.243 186.056 127.946 177.944 134.497C169.832 140.987 159.506 144.231 146.964 144.231ZM198.311 142.734V2.99496H222.458V78.527L258.493 43.2413H291.626L251.192 82.1772L294.527 142.734H264.577L234.719 98.4629L222.458 110.162V142.734H198.311ZM358.135 43.2413H382.47L341.475 149.473C340.227 152.78 338.886 155.775 337.45 158.458C336.015 161.204 334.175 163.949 331.928 166.694C329.744 169.502 327.311 171.842 324.628 173.714C321.945 175.586 318.7 177.115 314.894 178.3C311.15 179.486 307.032 180.079 302.539 180.079C297.61 180.079 293.024 179.392 288.781 178.02V157.335C292.088 158.583 295.644 159.207 299.45 159.207C304.629 159.207 308.748 157.834 311.805 155.089C314.925 152.405 317.858 147.507 320.603 140.394L320.978 139.645L282.042 43.2413H308.717L333.051 108.01L358.135 43.2413ZM448.1 144.231C433.436 144.231 421.83 139.52 413.282 130.098C404.796 120.676 400.553 108.291 400.553 92.9408C400.553 77.6534 404.796 65.2987 413.282 55.8767C421.83 46.4547 433.312 41.7437 447.725 41.7437C453.778 41.7437 459.331 42.8981 464.385 45.2068C469.502 47.5155 473.527 50.6354 476.459 54.5664V2.99496H500.607V142.734H476.459V131.034C474.088 134.903 470.313 138.085 465.134 140.581C460.018 143.015 454.339 144.231 448.1 144.231ZM451.563 123.36C459.55 123.36 465.945 120.583 470.75 115.029C475.617 109.476 478.051 102.113 478.051 92.9408C478.051 83.8308 475.617 76.4991 470.75 70.9457C465.945 65.3923 459.55 62.6157 451.563 62.6157C443.638 62.6157 437.243 65.3923 432.376 70.9457C427.571 76.4991 425.169 83.8308 425.169 92.9408C425.169 102.051 427.571 109.414 432.376 115.029C437.243 120.583 443.638 123.36 451.563 123.36ZM557.663 144.231C542.938 144.231 530.77 139.396 521.161 129.724C511.614 120.052 506.841 107.791 506.841 92.9408C506.841 78.1526 511.614 65.9227 521.161 56.2511C530.77 46.5795 542.938 41.7437 557.663 41.7437C572.327 41.7437 584.463 46.6107 594.072 56.3447C603.681 66.0163 608.486 78.215 608.486 92.9408C608.486 102.675 606.302 111.473 601.934 119.335C597.566 127.135 591.514 133.249 583.777 137.68C576.039 142.048 567.335 144.231 557.663 144.231ZM557.663 123.36C565.463 123.36 571.796 120.552 576.663 114.936C581.53 109.32 583.964 101.988 583.964 92.9408C583.964 83.9556 581.499 76.6551 576.57 71.0393C571.703 65.4235 565.401 62.6157 557.663 62.6157C549.801 62.6157 543.468 65.4235 538.663 71.0393C533.921 76.6551 531.55 83.9556 531.55 92.9408C531.55 102.051 533.921 109.414 538.663 115.029C543.406 120.583 549.739 123.36 557.663 123.36ZM614.813 142.734V43.2413H638.961V58.7782C641.706 53.4744 645.513 49.325 650.38 46.3299C655.247 43.2725 661.018 41.7437 667.695 41.7437C675.557 41.7437 682.14 43.3661 687.444 46.6107C692.81 49.793 696.585 54.4104 698.769 60.4629C701.577 54.972 705.882 50.4794 711.685 46.9851C717.488 43.4909 724.164 41.7437 731.715 41.7437C742.26 41.7437 750.777 44.8636 757.266 51.1033C763.756 57.2807 767 65.3299 767 75.2511V142.734H742.852V81.99C742.852 75.9375 741.23 71.1329 737.985 67.5762C734.803 64.0196 730.342 62.2413 724.601 62.2413C717.738 62.2413 712.403 64.9556 708.596 70.3841C704.852 75.7503 702.981 82.9884 702.981 92.0984V142.734H678.833V81.99C678.833 75.9375 677.21 71.1329 673.966 67.5762C670.783 64.0196 666.322 62.2413 660.582 62.2413C653.843 62.2413 648.539 64.9868 644.67 70.4777C640.864 75.9687 638.961 83.238 638.961 92.2856V142.734H614.813ZM777.633 142.734V43.2413H801.781V142.734H777.633ZM776.603 2.99496H802.904V28.2659H776.603V2.99496ZM813.162 142.734V43.2413H837.31V58.591C840.679 53.3496 845.109 49.2314 850.6 46.2363C856.091 43.2413 862.269 41.7437 869.132 41.7437C879.865 41.7437 888.538 45.0196 895.152 51.5713C901.829 58.123 905.167 66.7963 905.167 77.591V142.734H881.206V83.1132C881.206 77.1854 879.459 72.3808 875.965 68.6994C872.471 65.018 867.822 63.1772 862.019 63.1772C854.157 63.1772 848.073 66.3283 843.768 72.6304C839.462 78.9326 837.31 87.7306 837.31 99.0245V142.734H813.162ZM960.913 180.079C947.185 180.079 936.078 177.021 927.592 170.906C919.106 164.854 914.115 156.087 912.617 144.606H936.952C937.638 149.598 940.072 153.529 944.252 156.399C948.496 159.332 954.049 160.798 960.913 160.798C968.4 160.798 974.297 158.832 978.602 154.901C982.908 150.97 985.06 145.573 985.06 138.709V126.261C982.627 129.693 978.914 132.47 973.922 134.591C968.931 136.713 963.377 137.773 957.262 137.773C943.036 137.773 931.711 133.405 923.287 124.67C914.863 115.872 910.652 104.266 910.652 89.8521C910.652 75.3759 914.832 63.7388 923.193 54.9408C931.555 46.1427 942.724 41.7437 956.701 41.7437C962.629 41.7437 968.119 42.8669 973.174 45.1132C978.228 47.3595 982.19 50.3858 985.06 54.192V43.2413H1009.21V136.182C1009.21 149.722 1004.84 160.424 996.105 168.286C987.431 176.148 975.701 180.079 960.913 180.079ZM942.287 109.694C946.967 114.624 953.175 117.089 960.913 117.089C968.65 117.089 974.827 114.624 979.445 109.694C984.062 104.703 986.371 98.0886 986.371 89.8521C986.371 81.6781 984.062 75.0951 979.445 70.1033C974.827 65.1116 968.65 62.6157 960.913 62.6157C953.175 62.6157 946.967 65.1116 942.287 70.1033C937.607 75.0327 935.267 81.6157 935.267 89.8521C935.267 98.0886 937.607 104.703 942.287 109.694ZM1065.7 144.231C1050.98 144.231 1038.81 139.396 1029.2 129.724C1019.65 120.052 1014.88 107.791 1014.88 92.9408C1014.88 78.1526 1019.65 65.9227 1029.2 56.2511C1038.81 46.5795 1050.98 41.7437 1065.7 41.7437C1080.37 41.7437 1092.5 46.6107 1102.11 56.3447C1111.72 66.0163 1116.53 78.215 1116.53 92.9408C1116.53 102.675 1114.34 111.473 1109.97 119.335C1105.61 127.135 1099.55 133.249 1091.82 137.68C1084.08 142.048 1075.37 144.231 1065.7 144.231ZM1065.7 123.36C1073.5 123.36 1079.84 120.552 1084.7 114.936C1089.57 109.32 1092 101.988 1092 92.9408C1092 83.9556 1089.54 76.6551 1084.61 71.0393C1079.74 65.4235 1073.44 62.6157 1065.7 62.6157C1057.84 62.6157 1051.51 65.4235 1046.7 71.0393C1041.96 76.6551 1039.59 83.9556 1039.59 92.9408C1039.59 102.051 1041.96 109.414 1046.7 115.029C1051.44 120.583 1057.78 123.36 1065.7 123.36ZM1160.01 144.231C1147.28 144.231 1136.89 140.893 1128.84 134.217C1120.86 127.54 1116.61 118.867 1116.11 108.197H1139.7C1140.01 112.19 1142.04 115.778 1145.78 118.96C1149.59 122.143 1154.33 123.734 1160.01 123.734C1164.81 123.734 1168.71 122.798 1171.71 120.926C1174.77 118.992 1176.3 116.496 1176.3 113.438C1176.3 108.384 1172.71 105.171 1165.53 103.798L1150 100.522C1145.81 99.6485 1142.1 98.5253 1138.86 97.1526C1135.61 95.7175 1132.56 93.8767 1129.68 91.6304C1126.81 89.3217 1124.6 86.3579 1123.04 82.7388C1121.48 79.1198 1120.7 74.9703 1120.7 70.2905C1120.7 62.2413 1124.1 55.4712 1130.9 49.9802C1137.7 44.4892 1146.69 41.7437 1157.86 41.7437C1168.84 41.7437 1178.11 44.5828 1185.66 50.261C1193.27 55.9391 1197.7 63.6452 1198.95 73.3792H1175.36C1174.8 69.573 1172.8 66.5779 1169.37 64.394C1166 62.2101 1162.16 61.1181 1157.86 61.1181C1153.93 61.1181 1150.74 61.9605 1148.31 63.6452C1145.88 65.2675 1144.66 67.4827 1144.66 70.2905C1144.66 74.8455 1148.25 77.8406 1155.42 79.2758L1170.96 82.5516C1175.58 83.4876 1179.54 84.6419 1182.85 86.0147C1186.15 87.325 1189.24 89.1033 1192.11 91.3496C1194.98 93.596 1197.14 96.5286 1198.57 100.148C1200.07 103.704 1200.82 107.947 1200.82 112.877C1200.82 121.675 1197.01 129.1 1189.4 135.153C1181.85 141.205 1172.05 144.231 1160.01 144.231Z"/>
<path d="M370.172 117.089H397.034V142.734H370.172V117.089Z"/>
</mask>
<path d="M63.7382 65.3299L63.2267 68.281L66.7332 68.8888V65.3299H63.7382ZM34.817 74.596L32.4107 72.8127L32.4055 72.8196L32.4004 72.8266L34.817 74.596ZM27.1421 142.734V145.729H30.1372V142.734H27.1421ZM2.99432 142.734H-0.000750065V145.729H2.99432V142.734ZM2.99432 43.2413V40.2462H-0.000750065V43.2413H2.99432ZM27.1421 43.2413H30.1372V40.2462H27.1421V43.2413ZM27.1421 61.4925H24.147L29.9335 62.5781L27.1421 61.4925ZM39.1224 47.4531L40.7461 49.9698L40.7556 49.9637L40.7651 49.9575L39.1224 47.4531ZM63.7382 42.3053H66.7332V39.7681L64.2306 39.351L63.7382 42.3053ZM63.7382 65.3299L64.2497 62.3789C59.5941 61.5719 56.1388 61.1181 54.0978 61.1181V64.1132V67.1083C55.551 67.1083 58.5227 67.4657 63.2267 68.281L63.7382 65.3299ZM54.0978 64.1132V61.1181C45.3378 61.1181 38.0682 65.1785 32.4107 72.8127L34.817 74.596L37.2233 76.3792C41.9238 70.0364 47.508 67.1083 54.0978 67.1083V64.1132ZM34.817 74.596L32.4004 72.8266C26.7389 80.5593 24.147 91.825 24.147 106.138H27.1421H30.1372C30.1372 92.3718 32.6619 82.6096 37.2336 76.3653L34.817 74.596ZM27.1421 106.138H24.147V142.734H27.1421H30.1372V106.138H27.1421ZM27.1421 142.734V139.739H2.99432V142.734V145.729H27.1421V142.734ZM2.99432 142.734H5.9894V43.2413H2.99432H-0.000750065V142.734H2.99432ZM2.99432 43.2413V46.2363H27.1421V43.2413V40.2462H2.99432V43.2413ZM27.1421 43.2413H24.147V61.4925H27.1421H30.1372V43.2413H27.1421ZM27.1421 61.4925L29.9335 62.5781C31.8563 57.6339 35.393 53.4235 40.7461 49.9698L39.1224 47.4531L37.4987 44.9363C31.2459 48.9704 26.7958 54.1196 24.3507 60.407L27.1421 61.4925ZM39.1224 47.4531L40.7651 49.9575C46.1478 46.4269 51.5441 44.7388 56.9993 44.7388V41.7437V38.7487C50.2245 38.7487 43.7029 40.8668 37.4797 44.9487L39.1224 47.4531ZM56.9993 41.7437V44.7388C59.0783 44.7388 61.16 44.912 63.2458 45.2596L63.7382 42.3053L64.2306 39.351C61.8238 38.9499 59.4128 38.7487 56.9993 38.7487V41.7437ZM63.7382 42.3053H60.7431V65.3299H63.7382H66.7332V42.3053H63.7382ZM66.7894 142.734H63.7943V145.729H66.7894V142.734ZM66.7894 43.2413V40.2462H63.7943V43.2413H66.7894ZM90.9372 43.2413H93.9323V40.2462H90.9372V43.2413ZM90.9372 142.734V145.729H93.9323V142.734H90.9372ZM65.7598 2.99496V-0.000106812H62.7648V2.99496H65.7598ZM92.0603 2.99496H95.0554V-0.000106812H92.0603V2.99496ZM92.0603 28.2659V31.261H95.0554V28.2659H92.0603ZM65.7598 28.2659H62.7648V31.261H65.7598V28.2659ZM66.7894 142.734H69.7845V43.2413H66.7894H63.7943V142.734H66.7894ZM66.7894 43.2413V46.2363H90.9372V43.2413V40.2462H66.7894V43.2413ZM90.9372 43.2413H87.9421V142.734H90.9372H93.9323V43.2413H90.9372ZM90.9372 142.734V139.739H66.7894V142.734V145.729H90.9372V142.734ZM65.7598 2.99496V5.99004H92.0603V2.99496V-0.000106812H65.7598V2.99496ZM92.0603 2.99496H89.0653V28.2659H92.0603H95.0554V2.99496H92.0603ZM92.0603 28.2659V25.2708H65.7598V28.2659V31.261H92.0603V28.2659ZM65.7598 28.2659H68.7549V2.99496H65.7598H62.7648V28.2659H65.7598ZM178.131 51.6649L176.247 53.9932L176.257 54.0011L176.267 54.0089L178.131 51.6649ZM192.919 80.0245V83.0196H196.334L195.889 79.6346L192.919 80.0245ZM169.333 80.0245L166.387 80.5635L166.836 83.0196H169.333V80.0245ZM128.806 70.9457L126.516 69.0157L126.514 69.0181L128.806 70.9457ZM128.806 115.123L126.514 117.051L126.52 117.058L126.527 117.066L128.806 115.123ZM161.752 118.68L163.632 121.011L163.643 121.002L163.655 120.993L161.752 118.68ZM169.146 105.389V102.394H166.659L166.202 104.839L169.146 105.389ZM192.919 105.389L195.883 105.821L196.382 102.394H192.919V105.389ZM177.944 134.497L179.815 136.836L179.826 136.827L177.944 134.497ZM146.964 144.231V141.236C133.013 141.236 121.834 136.755 113.162 127.908L111.023 130.005L108.884 132.101C118.806 142.223 131.588 147.227 146.964 147.227V144.231ZM111.023 130.005L113.162 127.908C104.495 119.066 100.072 107.506 100.072 92.9408H97.0771H94.082C94.082 108.826 98.9568 121.974 108.884 132.101L111.023 130.005ZM97.0771 92.9408H100.072C100.072 78.4419 104.492 66.9111 113.162 58.067L111.023 55.9703L108.884 53.8737C98.9592 63.9984 94.082 77.1145 94.082 92.9408H97.0771ZM111.023 55.9703L113.162 58.067C121.834 49.2199 133.013 44.7388 146.964 44.7388V41.7437V38.7487C131.588 38.7487 118.806 43.752 108.884 53.8737L111.023 55.9703ZM146.964 41.7437V44.7388C159.024 44.7388 168.707 47.8918 176.247 53.9932L178.131 51.6649L180.015 49.3366C171.208 42.2097 160.112 38.7487 146.964 38.7487V41.7437ZM178.131 51.6649L176.267 54.0089C183.786 59.9897 188.409 68.6783 189.95 80.4145L192.919 80.0245L195.889 79.6346C194.185 66.6614 188.95 56.4435 179.996 49.321L178.131 51.6649ZM192.919 80.0245V77.0294H169.333V80.0245V83.0196H192.919V80.0245ZM169.333 80.0245L172.279 79.4856C171.214 73.6602 168.337 68.8401 163.717 65.1439L161.846 67.4827L159.975 69.8214C163.466 72.6145 165.581 76.1556 166.387 80.5635L169.333 80.0245ZM161.846 67.4827L163.717 65.1439C159.085 61.4389 153.575 59.6206 147.338 59.6206V62.6157V65.6107C152.333 65.6107 156.494 67.0371 159.975 69.8214L161.846 67.4827ZM147.338 62.6157V59.6206C138.838 59.6206 131.801 62.7443 126.516 69.0157L128.806 70.9457L131.096 72.8757C135.171 68.0403 140.489 65.6107 147.338 65.6107V62.6157ZM128.806 70.9457L126.514 69.0181C121.328 75.1848 118.885 83.2639 118.885 92.9408H121.88H124.875C124.875 84.2728 127.049 77.6886 131.098 72.8733L128.806 70.9457ZM121.88 92.9408H118.885C118.885 102.731 121.322 110.877 126.514 117.051L128.806 115.123L131.098 113.195C127.055 108.387 124.875 101.745 124.875 92.9408H121.88ZM128.806 115.123L126.527 117.066C131.816 123.271 138.85 126.355 147.338 126.355V123.359V120.364C140.477 120.364 135.156 117.957 131.086 113.18L128.806 115.123ZM147.338 123.359V126.355C153.651 126.355 159.15 124.626 163.632 121.011L161.752 118.68L159.872 116.348C156.616 118.974 152.506 120.364 147.338 120.364V123.359ZM161.752 118.68L163.655 120.993C168.149 117.296 170.921 112.197 172.09 105.939L169.146 105.389L166.202 104.839C165.249 109.937 163.093 113.699 159.849 116.367L161.752 118.68ZM169.146 105.389V108.384H192.919V105.389V102.394H169.146V105.389ZM192.919 105.389L189.956 104.957C188.165 117.257 183.452 126.199 176.062 132.167L177.944 134.497L179.826 136.827C188.66 129.693 193.931 119.229 195.883 105.821L192.919 105.389ZM177.944 134.497L176.073 132.159C168.596 138.14 158.971 141.236 146.964 141.236V144.231V147.227C160.04 147.227 171.069 143.833 179.815 136.836L177.944 134.497ZM198.311 142.734H195.316V145.729H198.311V142.734ZM198.311 2.99496V-0.000106812H195.316V2.99496H198.311ZM222.458 2.99496H225.453V-0.000106812H222.458V2.99496ZM222.458 78.527H219.463V85.6517L224.554 80.6669L222.458 78.527ZM258.493 43.2413V40.2462H257.271L256.397 41.1013L258.493 43.2413ZM291.626 43.2413L293.703 45.3987L299.054 40.2462H291.626V43.2413ZM251.192 82.1772L249.115 80.0198L247.25 81.8153L248.757 83.9202L251.192 82.1772ZM294.527 142.734V145.729H300.354L296.963 140.991L294.527 142.734ZM264.577 142.734L262.093 144.409L262.984 145.729H264.577V142.734ZM234.719 98.463L237.203 96.7883L235.219 93.8467L232.652 96.2961L234.719 98.463ZM222.458 110.162L220.391 107.996L219.463 108.881V110.162H222.458ZM222.458 142.734V145.729H225.453V142.734H222.458ZM198.311 142.734H201.306V2.99496H198.311H195.316V142.734H198.311ZM198.311 2.99496V5.99004H222.458V2.99496V-0.000106812H198.311V2.99496ZM222.458 2.99496H219.463V78.527H222.458H225.453V2.99496H222.458ZM222.458 78.527L224.554 80.6669L260.588 45.3812L258.493 43.2413L256.397 41.1013L220.363 76.387L222.458 78.527ZM258.493 43.2413V46.2363H291.626V43.2413V40.2462H258.493V43.2413ZM291.626 43.2413L289.548 41.0839L249.115 80.0198L251.192 82.1772L253.27 84.3346L293.703 45.3987L291.626 43.2413ZM251.192 82.1772L248.757 83.9202L292.092 144.477L294.527 142.734L296.963 140.991L253.628 80.4342L251.192 82.1772ZM294.527 142.734V139.739H264.577V142.734V145.729H294.527V142.734ZM264.577 142.734L267.06 141.059L237.203 96.7883L234.719 98.463L232.236 100.138L262.093 144.409L264.577 142.734ZM234.719 98.463L232.652 96.2961L220.391 107.996L222.458 110.162L224.526 112.329L236.787 100.63L234.719 98.463ZM222.458 110.162H219.463V142.734H222.458H225.453V110.162H222.458ZM222.458 142.734V139.739H198.311V142.734V145.729H222.458V142.734ZM358.135 43.2413V40.2462H356.083L355.342 42.1596L358.135 43.2413ZM382.47 43.2413L385.264 44.3196L386.836 40.2462H382.47V43.2413ZM341.475 149.473L338.681 148.395L338.677 148.405L338.673 148.415L341.475 149.473ZM337.451 158.458L334.809 157.045L334.803 157.058L334.796 157.071L337.451 158.458ZM331.928 166.694L329.61 164.798L329.587 164.826L329.564 164.856L331.928 166.694ZM314.894 178.3L314.003 175.441L313.996 175.443L313.99 175.445L314.894 178.3ZM288.781 178.02H285.785V180.199L287.859 180.869L288.781 178.02ZM288.781 157.335L289.838 154.533L285.785 153.003V157.335H288.781ZM311.805 155.089L309.852 152.818L309.828 152.839L309.804 152.86L311.805 155.089ZM320.603 140.394L317.924 139.055L317.86 139.182L317.809 139.316L320.603 140.394ZM320.978 139.645L323.656 140.985L324.261 139.776L323.755 138.524L320.978 139.645ZM282.042 43.2413V40.2462H277.602L279.264 44.3629L282.042 43.2413ZM308.716 43.2413L311.52 42.1879L310.791 40.2462H308.716V43.2413ZM333.051 108.01L330.248 109.063L333.009 116.412L335.844 109.091L333.051 108.01ZM358.135 43.2413V46.2363H382.47V43.2413V40.2462H358.135V43.2413ZM382.47 43.2413L379.676 42.163L338.681 148.395L341.475 149.473L344.269 150.551L385.264 44.3196L382.47 43.2413ZM341.475 149.473L338.673 148.415C337.464 151.62 336.174 154.494 334.809 157.045L337.451 158.458L340.091 159.871C341.597 157.056 342.991 153.94 344.277 150.53L341.475 149.473ZM337.451 158.458L334.796 157.071C333.468 159.612 331.746 162.188 329.61 164.798L331.928 166.694L334.246 168.591C336.604 165.71 338.563 162.796 340.105 159.846L337.451 158.458ZM331.928 166.694L329.564 164.856C327.549 167.447 325.33 169.572 322.914 171.258L324.628 173.714L326.342 176.171C329.292 174.112 331.94 171.558 334.292 168.533L331.928 166.694ZM324.628 173.714L322.914 171.258C320.531 172.92 317.578 174.327 314.003 175.441L314.894 178.3L315.785 181.16C319.822 179.902 323.358 178.252 326.342 176.171L324.628 173.714ZM314.894 178.3L313.99 175.445C310.577 176.526 306.768 177.084 302.539 177.084V180.079V183.074C307.295 183.074 311.723 182.446 315.798 181.156L314.894 178.3ZM302.539 180.079V177.084C297.89 177.084 293.618 176.437 289.702 175.17L288.781 178.02L287.859 180.869C292.429 182.348 297.329 183.074 302.539 183.074V180.079ZM288.781 178.02H291.776V157.335H288.781H285.785V178.02H288.781ZM288.781 157.335L287.723 160.137C291.393 161.522 295.311 162.202 299.451 162.202V159.207V156.212C295.978 156.212 292.782 155.644 289.838 154.533L288.781 157.335ZM299.451 159.207V162.202C305.169 162.202 310.067 160.675 313.806 157.317L311.805 155.089L309.804 152.86C307.428 154.993 304.09 156.212 299.451 156.212V159.207ZM311.805 155.089L313.758 157.359C317.451 154.183 320.602 148.716 323.397 141.472L320.603 140.394L317.809 139.316C315.114 146.299 312.399 150.628 309.852 152.818L311.805 155.089ZM320.603 140.394L323.282 141.733L323.656 140.985L320.978 139.645L318.299 138.306L317.924 139.055L320.603 140.394ZM320.978 139.645L323.755 138.524L284.819 42.1196L282.042 43.2413L279.264 44.3629L318.2 140.767L320.978 139.645ZM282.042 43.2413V46.2363H308.716V43.2413V40.2462H282.042V43.2413ZM308.716 43.2413L305.913 44.2947L330.248 109.063L333.051 108.01L335.855 106.956L311.52 42.1879L308.716 43.2413ZM333.051 108.01L335.844 109.091L360.928 44.3229L358.135 43.2413L355.342 42.1596L330.259 106.928L333.051 108.01ZM370.172 117.089V114.093H367.177V117.089H370.172ZM397.034 117.089H400.029V114.093H397.034V117.089ZM397.034 142.734V145.729H400.029V142.734H397.034ZM370.172 142.734H367.177V145.729H370.172V142.734ZM370.172 117.089V120.084H397.034V117.089V114.093H370.172V117.089ZM397.034 117.089H394.039V142.734H397.034H400.029V117.089H397.034ZM397.034 142.734V139.739H370.172V142.734V145.729H397.034V142.734ZM370.172 142.734H373.167V117.089H370.172H367.177V142.734H370.172ZM413.282 130.098L411.057 132.103L411.064 132.111L413.282 130.098ZM413.282 55.8767L411.064 53.8642L411.057 53.8723L413.282 55.8767ZM464.385 45.2068L463.141 47.9311L463.154 47.9368L464.385 45.2068ZM476.459 54.5664L474.059 56.3573L479.454 63.5899V54.5664H476.459ZM476.459 2.99496V-0.000106812H473.464V2.99496H476.459ZM500.607 2.99496H503.602V-0.000106812H500.607V2.99496ZM500.607 142.734V145.729H503.602V142.734H500.607ZM476.459 142.734H473.464V145.729H476.459V142.734ZM476.459 131.034H479.454V120.416L473.906 129.469L476.459 131.034ZM465.134 140.581L466.421 143.286L466.428 143.283L466.435 143.279L465.134 140.581ZM470.75 115.029L468.498 113.055L468.491 113.063L468.485 113.07L470.75 115.029ZM470.75 70.9457L468.485 72.9053L468.491 72.9126L468.498 72.9198L470.75 70.9457ZM432.376 70.9457L430.123 68.9716L430.117 68.9788L430.111 68.9861L432.376 70.9457ZM432.376 115.029L430.1 116.977L430.111 116.99L430.123 117.004L432.376 115.029ZM448.1 144.231V141.236C434.139 141.236 423.392 136.784 415.5 128.086L413.282 130.098L411.064 132.111C420.269 142.257 432.733 147.227 448.1 147.227V144.231ZM413.282 130.098L415.508 128.094C407.617 119.333 403.548 107.714 403.548 92.9408H400.553H397.558C397.558 108.867 401.975 122.02 411.057 132.103L413.282 130.098ZM400.553 92.9408H403.548C403.548 78.2336 407.615 66.6447 415.508 57.8811L413.282 55.8767L411.057 53.8723C401.977 63.9528 397.558 77.0733 397.558 92.9408H400.553ZM413.282 55.8767L415.5 57.8893C423.402 49.1795 434.032 44.7388 447.725 44.7388V41.7437V38.7487C432.591 38.7487 420.258 43.73 411.064 53.8642L413.282 55.8767ZM447.725 41.7437V44.7388C453.387 44.7388 458.511 45.8163 463.141 47.9311L464.385 45.2068L465.63 42.4825C460.151 39.9799 454.169 38.7487 447.725 38.7487V41.7437ZM464.385 45.2068L463.154 47.9368C467.875 50.0672 471.471 52.889 474.059 56.3573L476.459 54.5664L478.86 52.7755C475.582 48.3817 471.129 44.9638 465.617 42.4768L464.385 45.2068ZM476.459 54.5664H479.454V2.99496H476.459H473.464V54.5664H476.459ZM476.459 2.99496V5.99004H500.607V2.99496V-0.000106812H476.459V2.99496ZM500.607 2.99496H497.612V142.734H500.607H503.602V2.99496H500.607ZM500.607 142.734V139.739H476.459V142.734V145.729H500.607V142.734ZM476.459 142.734H479.454V131.034H476.459H473.464V142.734H476.459ZM476.459 131.034L473.906 129.469C471.906 132.732 468.633 135.571 463.834 137.883L465.134 140.581L466.435 143.279C471.994 140.6 476.271 137.074 479.013 132.599L476.459 131.034ZM465.134 140.581L463.848 137.876C459.172 140.1 453.94 141.236 448.1 141.236V144.231V147.227C454.739 147.227 460.863 145.929 466.421 143.286L465.134 140.581ZM451.563 123.359V126.355C460.333 126.355 467.588 123.262 473.015 116.989L470.75 115.029L468.485 113.07C464.303 117.903 458.766 120.364 451.563 120.364V123.359ZM470.75 115.029L473.002 117.004C478.456 110.781 481.046 102.657 481.046 92.9408H478.051H475.055C475.055 101.569 472.778 108.171 468.498 113.055L470.75 115.029ZM478.051 92.9408H481.046C481.046 83.281 478.453 75.1908 473.002 68.9716L470.75 70.9457L468.498 72.9198C472.781 77.8073 475.055 84.3805 475.055 92.9408H478.051ZM470.75 70.9457L473.015 68.9861C467.588 62.7128 460.333 59.6206 451.563 59.6206V62.6157V65.6107C458.766 65.6107 464.303 68.0719 468.485 72.9053L470.75 70.9457ZM451.563 62.6157V59.6206C442.847 59.6206 435.604 62.7176 430.123 68.9716L432.376 70.9457L434.628 72.9198C438.881 68.0671 444.43 65.6107 451.563 65.6107V62.6157ZM432.376 70.9457L430.111 68.9861C424.73 75.2056 422.174 83.2905 422.174 92.9408H425.169H428.164C428.164 84.371 430.412 77.7925 434.641 72.9053L432.376 70.9457ZM425.169 92.9408H422.174C422.174 102.593 424.73 110.7 430.1 116.977L432.376 115.029L434.651 113.082C430.412 108.127 428.164 101.509 428.164 92.9408H425.169ZM432.376 115.029L430.123 117.004C435.604 123.258 442.847 126.355 451.563 126.355V123.359V120.364C444.43 120.364 438.881 117.908 434.628 113.055L432.376 115.029ZM521.161 129.724L519.029 131.828L519.036 131.835L521.161 129.724ZM521.161 56.2511L519.036 54.1401L519.029 54.1471L521.161 56.2511ZM594.072 56.3447L591.941 58.4489L591.948 58.4557L594.072 56.3447ZM601.934 119.335L604.547 120.798L604.552 120.789L601.934 119.335ZM583.777 137.68L585.249 140.288L585.257 140.283L585.265 140.279L583.777 137.68ZM576.57 71.0393L574.306 73.0009L574.313 73.008L574.319 73.0151L576.57 71.0393ZM538.663 71.0393L536.388 69.0922L536.381 69.0996L536.375 69.1069L538.663 71.0393ZM538.663 115.029L536.375 116.962L536.38 116.968L536.386 116.974L538.663 115.029ZM557.663 144.231V141.236C543.665 141.236 532.285 136.671 523.286 127.613L521.161 129.724L519.036 131.835C529.255 142.121 542.21 147.227 557.663 147.227V144.231ZM521.161 129.724L523.292 127.62C514.353 118.564 509.836 107.084 509.836 92.9408H506.841H503.846C503.846 108.499 508.875 121.541 519.029 131.828L521.161 129.724ZM506.841 92.9408H509.836C509.836 78.8638 514.35 67.4141 523.292 58.3552L521.161 56.2511L519.029 54.1471C508.878 64.4313 503.846 77.4414 503.846 92.9408H506.841ZM521.161 56.2511L523.286 58.3621C532.285 49.3046 543.665 44.7388 557.663 44.7388V41.7437V38.7487C542.21 38.7487 529.255 43.8545 519.036 54.1402L521.161 56.2511ZM557.663 41.7437V44.7388C571.59 44.7388 582.938 49.3289 591.941 58.4489L594.072 56.3447L596.204 54.2406C585.988 43.8926 573.064 38.7487 557.663 38.7487V41.7437ZM594.072 56.3447L591.948 58.4557C600.952 67.5185 605.491 78.9361 605.491 92.9408H608.486H611.481C611.481 77.4939 606.411 64.5142 596.197 54.2337L594.072 56.3447ZM608.486 92.9408H605.491C605.491 102.209 603.417 110.499 599.316 117.88L601.934 119.335L604.552 120.789C609.188 112.446 611.481 103.141 611.481 92.9408H608.486ZM601.934 119.335L599.321 117.871C595.218 125.199 589.553 130.921 582.288 135.081L583.777 137.68L585.265 140.279C593.474 135.578 599.915 129.07 604.547 120.798L601.934 119.335ZM583.777 137.68L582.304 135.072C575.055 139.164 566.866 141.236 557.663 141.236V144.231V147.227C567.804 147.227 577.023 144.931 585.249 140.288L583.777 137.68ZM557.663 123.359V126.355C566.283 126.355 573.459 123.206 578.927 116.897L576.663 114.936L574.4 112.974C570.133 117.897 564.643 120.364 557.663 120.364V123.359ZM576.663 114.936L578.927 116.897C584.363 110.625 586.959 102.546 586.959 92.9408H583.964H580.969C580.969 101.431 578.698 108.015 574.4 112.974L576.663 114.936ZM583.964 92.9408H586.959C586.959 83.3829 584.323 75.3316 578.821 69.0635L576.57 71.0393L574.319 73.0151C578.676 77.9786 580.969 84.5282 580.969 92.9408H583.964ZM576.57 71.0393L578.833 69.0777C573.371 62.7753 566.228 59.6206 557.663 59.6206V62.6157V65.6107C564.573 65.6107 570.034 68.0718 574.306 73.0009L576.57 71.0393ZM557.663 62.6157V59.6206C548.99 59.6206 541.801 62.7645 536.388 69.0922L538.663 71.0393L540.939 72.9864C545.135 68.0825 550.613 65.6107 557.663 65.6107V62.6157ZM538.663 71.0393L536.375 69.1069C531.081 75.3761 528.555 83.4115 528.555 92.9408H531.55H534.545C534.545 84.4996 536.761 77.9341 540.952 72.9717L538.663 71.0393ZM531.55 92.9408H528.555C528.555 102.583 531.075 110.685 536.375 116.962L538.663 115.029L540.952 113.097C536.767 108.142 534.545 101.518 534.545 92.9408H531.55ZM538.663 115.029L536.386 116.974C541.75 123.256 548.947 126.355 557.663 126.355V123.359V120.364C550.531 120.364 545.061 117.91 540.941 113.085L538.663 115.029ZM614.813 142.734H611.818V145.729H614.813V142.734ZM614.813 43.2413V40.2462H611.818V43.2413H614.813ZM638.961 43.2413H641.956V40.2462H638.961V43.2413ZM638.961 58.7782H635.966L641.621 60.1551L638.961 58.7782ZM650.38 46.3299L651.949 48.8807L651.961 48.8735L651.973 48.8661L650.38 46.3299ZM687.444 46.6107L685.881 49.1656L685.898 49.1764L685.916 49.1869L687.444 46.6107ZM698.769 60.4629L695.951 61.4795L698.294 67.9705L701.435 61.8266L698.769 60.4629ZM757.266 51.1033L755.19 53.2623L755.196 53.2675L755.201 53.2727L757.266 51.1033ZM767 142.734V145.729H769.995V142.734H767ZM742.852 142.734H739.857V145.729H742.852V142.734ZM737.985 67.5762L735.753 69.5733L735.763 69.5841L735.773 69.5948L737.985 67.5762ZM708.596 70.3841L706.144 68.6647L706.14 68.6704L708.596 70.3841ZM702.981 142.734V145.729H705.976V142.734H702.981ZM678.833 142.734H675.838V145.729H678.833V142.734ZM673.966 67.5762L671.734 69.5733L671.743 69.5841L671.753 69.5948L673.966 67.5762ZM644.67 70.4777L642.222 68.7527L642.215 68.762L642.209 68.7714L644.67 70.4777ZM638.961 142.734V145.729H641.956V142.734H638.961ZM614.813 142.734H617.808V43.2413H614.813H611.818V142.734H614.813ZM614.813 43.2413V46.2363H638.961V43.2413V40.2462H614.813V43.2413ZM638.961 43.2413H635.966V58.7782H638.961H641.956V43.2413H638.961ZM638.961 58.7782L641.621 60.1551C644.128 55.3116 647.567 51.5776 651.949 48.8807L650.38 46.3299L648.81 43.7792C643.458 47.0724 639.285 51.6373 636.301 57.4014L638.961 58.7782ZM650.38 46.3299L651.973 48.8661C656.29 46.1543 661.489 44.7388 667.695 44.7388V41.7437V38.7487C660.547 38.7487 654.204 40.3906 648.786 43.7938L650.38 46.3299ZM667.695 41.7437V44.7388C675.15 44.7388 681.157 46.2758 685.881 49.1656L687.444 46.6107L689.007 44.0558C683.123 40.4563 675.964 38.7487 667.695 38.7487V41.7437ZM687.444 46.6107L685.916 49.1869C690.664 52.0027 693.995 56.0584 695.951 61.4795L698.769 60.4629L701.586 59.4464C699.174 52.7624 694.955 47.5833 688.971 44.0346L687.444 46.6107ZM698.769 60.4629L701.435 61.8266C703.964 56.8814 707.857 52.7863 713.23 49.5509L711.685 46.9851L710.14 44.4193C703.907 48.1725 699.189 53.0625 696.102 59.0993L698.769 60.4629ZM711.685 46.9851L713.23 49.5509C718.515 46.3689 724.645 44.7388 731.715 44.7388V41.7437V38.7487C723.684 38.7487 716.461 40.6129 710.14 44.4193L711.685 46.9851ZM731.715 41.7437V44.7388C741.628 44.7388 749.354 47.6501 755.19 53.2623L757.266 51.1033L759.342 48.9444C752.2 42.0771 742.892 38.7487 731.715 38.7487V41.7437ZM757.266 51.1033L755.201 53.2727C761.03 58.821 764.005 66.0526 764.005 75.2511H767H769.995C769.995 64.6073 766.481 55.7404 759.331 48.934L757.266 51.1033ZM767 75.2511H764.005V142.734H767H769.995V75.2511H767ZM767 142.734V139.739H742.852V142.734V145.729H767V142.734ZM742.852 142.734H745.848V81.99H742.852H739.857V142.734H742.852ZM742.852 81.99H745.848C745.848 75.3904 744.066 69.7978 740.198 65.5577L737.985 67.5762L735.773 69.5948C738.394 72.468 739.857 76.4846 739.857 81.99H742.852ZM737.985 67.5762L740.218 65.5791C736.353 61.2595 731.006 59.2462 724.601 59.2462V62.2413V65.2363C729.678 65.2363 733.254 66.7797 735.753 69.5733L737.985 67.5762ZM724.601 62.2413V59.2462C716.802 59.2462 710.534 62.4036 706.144 68.6647L708.596 70.3841L711.049 72.1036C714.271 67.5075 718.673 65.2363 724.601 65.2363V62.2413ZM708.596 70.3841L706.14 68.6704C701.932 74.7015 699.985 82.6087 699.985 92.0984H702.981H705.976C705.976 83.3681 707.773 76.7991 711.053 72.0979L708.596 70.3841ZM702.981 92.0984H699.985V142.734H702.981H705.976V92.0984H702.981ZM702.981 142.734V139.739H678.833V142.734V145.729H702.981V142.734ZM678.833 142.734H681.828V81.99H678.833H675.838V142.734H678.833ZM678.833 81.99H681.828C681.828 75.3904 680.047 69.7978 676.178 65.5577L673.966 67.5762L671.753 69.5948C674.374 72.468 675.838 76.4846 675.838 81.99H678.833ZM673.966 67.5762L676.198 65.5791C672.333 61.2595 666.986 59.2462 660.582 59.2462V62.2413V65.2363C665.658 65.2363 669.234 66.7797 671.734 69.5733L673.966 67.5762ZM660.582 62.2413V59.2462C652.872 59.2462 646.654 62.4623 642.222 68.7527L644.67 70.4777L647.119 72.2028C650.424 67.5112 654.813 65.2363 660.582 65.2363V62.2413ZM644.67 70.4777L642.209 68.7714C637.951 74.913 635.966 82.8396 635.966 92.2856H638.961H641.956C641.956 83.6364 643.776 77.0243 647.132 72.184L644.67 70.4777ZM638.961 92.2856H635.966V142.734H638.961H641.956V92.2856H638.961ZM638.961 142.734V139.739H614.813V142.734V145.729H638.961V142.734ZM777.633 142.734H774.638V145.729H777.633V142.734ZM777.633 43.2413V40.2462H774.638V43.2413H777.633ZM801.781 43.2413H804.776V40.2462H801.781V43.2413ZM801.781 142.734V145.729H804.776V142.734H801.781ZM776.603 2.99496V-0.000106812H773.608V2.99496H776.603ZM802.904 2.99496H805.899V-0.000106812H802.904V2.99496ZM802.904 28.2659V31.261H805.899V28.2659H802.904ZM776.603 28.2659H773.608V31.261H776.603V28.2659ZM777.633 142.734H780.628V43.2413H777.633H774.638V142.734H777.633ZM777.633 43.2413V46.2363H801.781V43.2413V40.2462H777.633V43.2413ZM801.781 43.2413H798.785V142.734H801.781H804.776V43.2413H801.781ZM801.781 142.734V139.739H777.633V142.734V145.729H801.781V142.734ZM776.603 2.99496V5.99004H802.904V2.99496V-0.000106812H776.603V2.99496ZM802.904 2.99496H799.909V28.2659H802.904H805.899V2.99496H802.904ZM802.904 28.2659V25.2708H776.603V28.2659V31.261H802.904V28.2659ZM776.603 28.2659H779.598V2.99496H776.603H773.608V28.2659H776.603ZM813.162 142.734H810.167V145.729H813.162V142.734ZM813.162 43.2413V40.2462H810.167V43.2413H813.162ZM837.31 43.2413H840.305V40.2462H837.31V43.2413ZM837.31 58.591H834.315V68.7887L839.829 60.2106L837.31 58.591ZM895.152 51.5713L893.044 53.6992L893.054 53.709L895.152 51.5713ZM905.167 142.734V145.729H908.162V142.734H905.167ZM881.206 142.734H878.211V145.729H881.206V142.734ZM837.31 142.734V145.729H840.305V142.734H837.31ZM813.162 142.734H816.157V43.2413H813.162H810.167V142.734H813.162ZM813.162 43.2413V46.2363H837.31V43.2413V40.2462H813.162V43.2413ZM837.31 43.2413H834.315V58.591H837.31H840.305V43.2413H837.31ZM837.31 58.591L839.829 60.2106C842.926 55.3931 846.982 51.6214 852.034 48.8657L850.6 46.2363L849.166 43.607C843.236 46.8414 838.432 51.3062 834.79 56.9714L837.31 58.591ZM850.6 46.2363L852.034 48.8657C857.044 46.1334 862.72 44.7388 869.132 44.7388V41.7437V38.7487C861.817 38.7487 855.139 40.3491 849.166 43.607L850.6 46.2363ZM869.132 41.7437V44.7388C879.206 44.7388 887.077 47.7886 893.044 53.6992L895.152 51.5713L897.26 49.4435C889.998 42.2506 880.524 38.7487 869.132 38.7487V41.7437ZM895.152 51.5713L893.054 53.709C899.067 59.6098 902.172 67.4659 902.172 77.591H905.167H908.162C908.162 66.1267 904.59 56.6363 897.25 49.4336L895.152 51.5713ZM905.167 77.591H902.172V142.734H905.167H908.162V77.591H905.167ZM905.167 142.734V139.739H881.206V142.734V145.729H905.167V142.734ZM881.206 142.734H884.201V83.1132H881.206H878.211V142.734H881.206ZM881.206 83.1132H884.201C884.201 76.5561 882.248 70.9681 878.137 66.6375L875.965 68.6994L873.792 70.7613C876.671 73.7936 878.211 77.8148 878.211 83.1132H881.206ZM875.965 68.6994L878.137 66.6375C873.994 62.2728 868.514 60.1822 862.019 60.1822V63.1772V66.1723C867.129 66.1723 870.947 67.7631 873.792 70.7613L875.965 68.6994ZM862.019 63.1772V60.1822C853.203 60.1822 846.178 63.7929 841.295 70.9409L843.768 72.6304L846.241 74.3199C849.968 68.8637 855.111 66.1723 862.019 66.1723V63.1772ZM843.768 72.6304L841.295 70.9409C836.522 77.9269 834.315 87.4012 834.315 99.0245H837.31H840.305C840.305 88.06 842.403 79.9383 846.241 74.3199L843.768 72.6304ZM837.31 99.0245H834.315V142.734H837.31H840.305V99.0245H837.31ZM837.31 142.734V139.739H813.162V142.734V145.729H837.31V142.734ZM927.592 170.906L929.343 168.476L929.337 168.472L929.332 168.468L927.592 170.906ZM912.617 144.606V141.611H909.206L909.647 144.993L912.617 144.606ZM936.952 144.606L939.919 144.198L939.563 141.611H936.952V144.606ZM944.253 156.399L945.955 153.935L945.948 153.93L944.253 156.399ZM985.06 126.261H988.055V116.859L982.617 124.529L985.06 126.261ZM923.287 124.67L921.124 126.741L921.131 126.749L923.287 124.67ZM985.06 54.192L982.669 55.9953L988.055 63.1382V54.192H985.06ZM985.06 43.2413V40.2462H982.065V43.2413H985.06ZM1009.21 43.2413H1012.2V40.2462H1009.21V43.2413ZM996.105 168.286L994.101 166.059L994.093 166.067L996.105 168.286ZM942.287 109.694L940.102 111.743L940.108 111.75L940.115 111.757L942.287 109.694ZM979.445 109.694L981.63 111.742L981.637 111.735L981.643 111.728L979.445 109.694ZM942.287 70.1033L944.459 72.1655L944.466 72.1587L944.472 72.1518L942.287 70.1033ZM960.913 180.079V177.084C947.619 177.084 937.181 174.124 929.343 168.476L927.592 170.906L925.841 173.336C934.976 179.918 946.752 183.074 960.913 183.074V180.079ZM927.592 170.906L929.332 168.468C921.602 162.955 916.99 154.976 915.587 144.218L912.617 144.606L909.647 144.993C911.239 157.198 916.611 166.753 925.853 173.345L927.592 170.906ZM912.617 144.606V147.601H936.952V144.606V141.611H912.617V144.606ZM936.952 144.606L933.985 145.014C934.787 150.847 937.686 155.524 942.557 158.868L944.253 156.399L945.948 153.93C942.457 151.533 940.49 148.348 939.919 144.198L936.952 144.606ZM944.253 156.399L942.55 158.863C947.434 162.239 953.639 163.793 960.913 163.793V160.798V157.803C954.459 157.803 949.557 156.424 945.955 153.935L944.253 156.399ZM960.913 160.798V163.793C968.928 163.793 975.621 161.679 980.622 157.113L978.602 154.901L976.583 152.69C972.972 155.986 967.872 157.803 960.913 157.803V160.798ZM978.602 154.901L980.622 157.113C985.66 152.513 988.055 146.252 988.055 138.709H985.06H982.065C982.065 144.894 980.156 149.427 976.583 152.69L978.602 154.901ZM985.06 138.709H988.055V126.261H985.06H982.065V138.709H985.06ZM985.06 126.261L982.617 124.529C980.585 127.394 977.377 129.868 972.751 131.835L973.922 134.591L975.094 137.347C980.451 135.071 984.669 131.991 987.504 127.993L985.06 126.261ZM973.922 134.591L972.751 131.835C968.174 133.78 963.026 134.778 957.262 134.778V137.773V140.768C963.729 140.768 969.687 139.645 975.094 137.347L973.922 134.591ZM957.262 137.773V134.778C943.697 134.778 933.205 130.64 925.443 122.591L923.287 124.67L921.131 126.749C930.217 136.171 942.374 140.768 957.262 140.768V137.773ZM923.287 124.67L925.45 122.599C917.657 114.458 913.647 103.645 913.647 89.8521H910.651H907.656C907.656 104.887 912.07 117.285 921.124 126.741L923.287 124.67ZM910.651 89.8521H913.647C913.647 75.9864 917.632 65.1409 925.364 57.004L923.193 54.9408L921.022 52.8775C912.033 62.3368 907.656 74.7654 907.656 89.8521H910.651ZM923.193 54.9408L925.364 57.004C933.073 48.8928 943.409 44.7388 956.701 44.7388V41.7437V38.7487C942.039 38.7487 930.036 43.3927 921.022 52.8775L923.193 54.9408ZM956.701 41.7437V44.7388C962.24 44.7388 967.313 45.786 971.957 47.8501L973.174 45.1132L974.39 42.3763C968.926 39.9478 963.017 38.7487 956.701 38.7487V41.7437ZM973.174 45.1132L971.957 47.8501C976.622 49.9233 980.151 52.6558 982.669 55.9953L985.06 54.192L987.452 52.3887C984.229 48.1157 979.834 44.7957 974.39 42.3763L973.174 45.1132ZM985.06 54.192H988.055V43.2413H985.06H982.065V54.192H985.06ZM985.06 43.2413V46.2363H1009.21V43.2413V40.2462H985.06V43.2413ZM1009.21 43.2413H1006.21V136.182H1009.21H1012.2V43.2413H1009.21ZM1009.21 136.182H1006.21C1006.21 149.016 1002.11 158.854 994.101 166.059L996.105 168.286L998.108 170.512C1007.57 161.993 1012.2 150.429 1012.2 136.182H1009.21ZM996.105 168.286L994.093 166.067C986.105 173.308 975.16 177.084 960.913 177.084V180.079V183.074C976.241 183.074 988.758 178.988 998.116 170.505L996.105 168.286ZM942.287 109.694L940.115 111.757C945.441 117.366 952.479 120.084 960.913 120.084V117.089V114.093C953.872 114.093 948.493 111.881 944.459 107.632L942.287 109.694ZM960.913 117.089V120.084C969.346 120.084 976.362 117.366 981.63 111.742L979.445 109.694L977.259 107.647C973.292 111.882 967.954 114.093 960.913 114.093V117.089ZM979.445 109.694L981.643 111.728C986.876 106.071 989.366 98.6746 989.366 89.8521H986.371H983.376C983.376 97.5025 981.248 103.335 977.246 107.661L979.445 109.694ZM986.371 89.8521H989.366C989.366 81.0851 986.872 73.7227 981.643 68.0696L979.445 70.1033L977.246 72.1371C981.252 76.4675 983.376 82.271 983.376 89.8521H986.371ZM979.445 70.1033L981.643 68.0696C976.378 62.3777 969.358 59.6206 960.913 59.6206V62.6157V65.6107C967.942 65.6107 973.276 67.8454 977.246 72.1371L979.445 70.1033ZM960.913 62.6157V59.6206C952.467 59.6206 945.425 62.3773 940.102 68.0549L942.287 70.1033L944.472 72.1518C948.509 67.8458 953.884 65.6107 960.913 65.6107V62.6157ZM942.287 70.1033L940.115 68.0412C934.799 73.6405 932.272 81.0203 932.272 89.8521H935.267H938.262C938.262 82.211 940.415 76.4249 944.459 72.1655L942.287 70.1033ZM935.267 89.8521H932.272C932.272 98.6853 934.799 106.087 940.102 111.743L942.287 109.694L944.472 107.646C940.415 103.319 938.262 97.4918 938.262 89.8521H935.267ZM1029.2 129.724L1027.07 131.828L1027.08 131.835L1029.2 129.724ZM1029.2 56.2511L1027.08 54.1401L1027.07 54.1471L1029.2 56.2511ZM1102.11 56.3447L1099.98 58.4489L1099.99 58.4557L1102.11 56.3447ZM1109.97 119.335L1112.59 120.798L1112.59 120.789L1109.97 119.335ZM1091.82 137.68L1093.29 140.288L1093.3 140.283L1093.3 140.279L1091.82 137.68ZM1084.61 71.0393L1082.35 73.0009L1082.35 73.008L1082.36 73.0151L1084.61 71.0393ZM1046.7 71.0393L1044.43 69.0922L1044.42 69.0996L1044.41 69.1069L1046.7 71.0393ZM1046.7 115.029L1044.41 116.962L1044.42 116.968L1044.43 116.974L1046.7 115.029ZM1065.7 144.231V141.236C1051.7 141.236 1040.32 136.671 1031.32 127.613L1029.2 129.724L1027.08 131.835C1037.29 142.121 1050.25 147.227 1065.7 147.227V144.231ZM1029.2 129.724L1031.33 127.62C1022.39 118.564 1017.88 107.084 1017.88 92.9408H1014.88H1011.89C1011.89 108.499 1016.91 121.541 1027.07 131.828L1029.2 129.724ZM1014.88 92.9408H1017.88C1017.88 78.8638 1022.39 67.4141 1031.33 58.3552L1029.2 56.2511L1027.07 54.1471C1016.92 64.4313 1011.89 77.4414 1011.89 92.9408H1014.88ZM1029.2 56.2511L1031.32 58.3621C1040.32 49.3046 1051.7 44.7388 1065.7 44.7388V41.7437V38.7487C1050.25 38.7487 1037.29 43.8545 1027.08 54.1402L1029.2 56.2511ZM1065.7 41.7437V44.7388C1079.63 44.7388 1090.98 49.3289 1099.98 58.4489L1102.11 56.3447L1104.24 54.2406C1094.03 43.8926 1081.1 38.7487 1065.7 38.7487V41.7437ZM1102.11 56.3447L1099.99 58.4557C1108.99 67.5185 1113.53 78.9361 1113.53 92.9408H1116.53H1119.52C1119.52 77.4939 1114.45 64.5142 1104.24 54.2337L1102.11 56.3447ZM1116.53 92.9408H1113.53C1113.53 102.209 1111.46 110.499 1107.36 117.88L1109.97 119.335L1112.59 120.789C1117.23 112.446 1119.52 103.141 1119.52 92.9408H1116.53ZM1109.97 119.335L1107.36 117.871C1103.26 125.199 1097.59 130.921 1090.33 135.081L1091.82 137.68L1093.3 140.279C1101.51 135.578 1107.95 129.07 1112.59 120.798L1109.97 119.335ZM1091.82 137.68L1090.34 135.072C1083.09 139.164 1074.91 141.236 1065.7 141.236V144.231V147.227C1075.84 147.227 1085.06 144.931 1093.29 140.288L1091.82 137.68ZM1065.7 123.359V126.355C1074.32 126.355 1081.5 123.206 1086.97 116.897L1084.7 114.936L1082.44 112.974C1078.17 117.897 1072.68 120.364 1065.7 120.364V123.359ZM1084.7 114.936L1086.97 116.897C1092.4 110.625 1095 102.546 1095 92.9408H1092H1089.01C1089.01 101.431 1086.74 108.015 1082.44 112.974L1084.7 114.936ZM1092 92.9408H1095C1095 83.3829 1092.36 75.3316 1086.86 69.0635L1084.61 71.0393L1082.36 73.0151C1086.72 77.9786 1089.01 84.5282 1089.01 92.9408H1092ZM1084.61 71.0393L1086.87 69.0777C1081.41 62.7753 1074.27 59.6206 1065.7 59.6206V62.6157V65.6107C1072.61 65.6107 1078.07 68.0718 1082.35 73.0009L1084.61 71.0393ZM1065.7 62.6157V59.6206C1057.03 59.6206 1049.84 62.7645 1044.43 69.0922L1046.7 71.0393L1048.98 72.9864C1053.17 68.0825 1058.65 65.6107 1065.7 65.6107V62.6157ZM1046.7 71.0393L1044.41 69.1069C1039.12 75.3761 1036.59 83.4115 1036.59 92.9408H1039.59H1042.58C1042.58 84.4996 1044.8 77.9341 1048.99 72.9717L1046.7 71.0393ZM1039.59 92.9408H1036.59C1036.59 102.583 1039.11 110.685 1044.41 116.962L1046.7 115.029L1048.99 113.097C1044.81 108.142 1042.58 101.518 1042.58 92.9408H1039.59ZM1046.7 115.029L1044.43 116.974C1049.79 123.256 1056.99 126.355 1065.7 126.355V123.359V120.364C1058.57 120.364 1053.1 117.91 1048.98 113.085L1046.7 115.029ZM1128.84 134.217L1126.92 136.515L1126.93 136.522L1128.84 134.217ZM1116.11 108.197V105.202H1112.98L1113.12 108.337L1116.11 108.197ZM1139.7 108.197L1142.69 107.964L1142.47 105.202H1139.7V108.197ZM1145.78 118.96L1143.84 121.243L1143.85 121.25L1143.86 121.258L1145.78 118.96ZM1171.71 120.926L1173.3 123.466L1173.3 123.461L1173.31 123.457L1171.71 120.926ZM1165.53 103.798L1164.91 106.729L1164.94 106.734L1164.97 106.74L1165.53 103.798ZM1150 100.522L1150.61 97.5914L1150.61 97.5903L1150 100.522ZM1138.86 97.1526L1137.65 99.8917L1137.67 99.9015L1137.69 99.911L1138.86 97.1526ZM1129.68 91.6304L1127.81 93.9642L1127.82 93.9768L1127.84 93.9891L1129.68 91.6304ZM1185.66 50.261L1183.86 52.6547L1183.86 52.6618L1185.66 50.261ZM1198.95 73.3792V76.3743H1202.35L1201.92 72.9983L1198.95 73.3792ZM1175.36 73.3792L1172.4 73.8164L1172.77 76.3743H1175.36V73.3792ZM1169.37 64.394L1167.74 66.9073L1167.75 66.9141L1167.76 66.9208L1169.37 64.394ZM1148.31 63.6452L1149.97 66.1373L1149.99 66.1227L1150.02 66.1077L1148.31 63.6452ZM1155.42 79.2758L1156.04 76.3451L1156.03 76.3419L1156.01 76.3388L1155.42 79.2758ZM1170.96 82.5516L1170.34 85.4823L1170.35 85.4847L1170.37 85.487L1170.96 82.5516ZM1182.85 86.0147L1181.7 88.7809L1181.72 88.7902L1181.74 88.7991L1182.85 86.0147ZM1198.57 100.148L1195.79 101.252L1195.8 101.281L1195.81 101.31L1198.57 100.148ZM1189.4 135.153L1187.54 132.808L1187.53 132.816L1189.4 135.153ZM1160.01 144.231V141.236C1147.82 141.236 1138.16 138.051 1130.75 131.911L1128.84 134.217L1126.93 136.522C1135.63 143.735 1146.74 147.227 1160.01 147.227V144.231ZM1128.84 134.217L1130.76 131.919C1123.44 125.796 1119.57 117.914 1119.11 108.057L1116.11 108.197L1113.12 108.337C1113.66 119.82 1118.27 129.285 1126.92 136.515L1128.84 134.217ZM1116.11 108.197V111.192H1139.7V108.197V105.202H1116.11V108.197ZM1139.7 108.197L1136.71 108.43C1137.1 113.392 1139.64 117.668 1143.84 121.243L1145.78 118.96L1147.72 116.678C1144.44 113.888 1142.92 110.989 1142.69 107.964L1139.7 108.197ZM1145.78 118.96L1143.86 121.258C1148.28 124.955 1153.74 126.729 1160.01 126.729V123.734V120.739C1154.93 120.739 1150.9 119.33 1147.7 116.663L1145.78 118.96ZM1160.01 123.734V126.729C1165.18 126.729 1169.68 125.724 1173.3 123.466L1171.71 120.926L1170.12 118.386C1167.75 119.872 1164.45 120.739 1160.01 120.739V123.734ZM1171.71 120.926L1173.31 123.457C1177.05 121.091 1179.29 117.724 1179.29 113.438H1176.3H1173.3C1173.3 115.267 1172.48 116.892 1170.11 118.395L1171.71 120.926ZM1176.3 113.438H1179.29C1179.29 110.107 1178.07 107.212 1175.6 105.007C1173.25 102.896 1169.96 101.596 1166.1 100.856L1165.53 103.798L1164.97 106.74C1168.28 107.373 1170.38 108.366 1171.61 109.469C1172.73 110.476 1173.3 111.715 1173.3 113.438H1176.3ZM1165.53 103.798L1166.15 100.867L1150.61 97.5914L1150 100.522L1149.38 103.453L1164.91 106.729L1165.53 103.798ZM1150 100.522L1150.61 97.5903C1146.58 96.7484 1143.06 95.6774 1140.02 94.3942L1138.86 97.1526L1137.69 99.911C1141.15 101.373 1145.05 102.549 1149.38 103.454L1150 100.522ZM1138.86 97.1526L1140.07 94.4135C1137.06 93.0812 1134.21 91.3697 1131.53 89.2718L1129.68 91.6304L1127.84 93.9891C1130.9 96.3837 1134.17 98.3537 1137.65 99.8917L1138.86 97.1526ZM1129.68 91.6304L1131.56 89.2966C1129.1 87.3151 1127.17 84.7563 1125.79 81.5533L1123.04 82.7388L1120.29 83.9243C1122.03 87.9594 1124.53 91.3284 1127.81 93.9642L1129.68 91.6304ZM1123.04 82.7388L1125.79 81.5533C1124.42 78.372 1123.69 74.6378 1123.69 70.2905H1120.7H1117.7C1117.7 75.3029 1118.54 79.8675 1120.29 83.9243L1123.04 82.7388ZM1120.7 70.2905H1123.69C1123.69 63.2318 1126.62 57.2888 1132.78 52.3106L1130.9 49.9802L1129.02 47.6498C1121.58 53.6535 1117.7 61.2507 1117.7 70.2905H1120.7ZM1130.9 49.9802L1132.78 52.3106C1138.92 47.3572 1147.18 44.7388 1157.86 44.7388V41.7437V38.7487C1146.2 38.7487 1136.49 41.6212 1129.02 47.6498L1130.9 49.9802ZM1157.86 41.7437V44.7388C1168.3 44.7388 1176.91 47.4279 1183.86 52.6547L1185.66 50.261L1187.46 47.8673C1179.31 41.7377 1169.38 38.7487 1157.86 38.7487V41.7437ZM1185.66 50.261L1183.86 52.6618C1190.8 57.8365 1194.83 64.8013 1195.98 73.7601L1198.95 73.3792L1201.92 72.9983C1200.57 62.4891 1195.73 54.0418 1187.45 47.8602L1185.66 50.261ZM1198.95 73.3792V70.3841H1175.36V73.3792V76.3743H1198.95V73.3792ZM1175.36 73.3792L1178.32 72.942C1177.63 68.2211 1175.1 64.4875 1170.98 61.8671L1169.37 64.394L1167.76 66.9208C1170.51 68.6683 1171.97 70.9249 1172.4 73.8164L1175.36 73.3792ZM1169.37 64.394L1171 61.8807C1167.11 59.3594 1162.7 58.123 1157.86 58.123V61.1181V64.1132C1161.63 64.1132 1164.89 65.0608 1167.74 66.9073L1169.37 64.394ZM1157.86 61.1181V58.123C1153.51 58.123 1149.68 59.0538 1146.61 61.1827L1148.31 63.6452L1150.02 66.1077C1151.81 64.8671 1154.34 64.1132 1157.86 64.1132V61.1181ZM1148.31 63.6452L1146.65 61.1532C1143.42 63.3033 1141.67 66.4324 1141.67 70.2905H1144.66H1147.66C1147.66 68.533 1148.33 67.2318 1149.97 66.1373L1148.31 63.6452ZM1144.66 70.2905H1141.67C1141.67 73.4824 1142.98 76.2029 1145.43 78.2523C1147.77 80.2019 1151.01 81.4473 1154.84 82.2127L1155.42 79.2758L1156.01 76.3388C1152.66 75.6691 1150.52 74.6994 1149.27 73.6539C1148.14 72.7083 1147.66 71.6537 1147.66 70.2905H1144.66ZM1155.42 79.2758L1154.81 82.2064L1170.34 85.4823L1170.96 82.5516L1171.58 79.621L1156.04 76.3451L1155.42 79.2758ZM1170.96 82.5516L1170.37 85.487C1174.85 86.3958 1178.62 87.5012 1181.7 88.7809L1182.85 86.0147L1184 83.2484C1180.46 81.7826 1176.31 80.5793 1171.56 79.6162L1170.96 82.5516ZM1182.85 86.0147L1181.74 88.7991C1184.78 90.0012 1187.62 91.6344 1190.27 93.7083L1192.11 91.3496L1193.96 88.991C1190.87 86.5723 1187.53 84.6488 1183.95 83.2302L1182.85 86.0147ZM1192.11 91.3496L1190.27 93.7083C1192.69 95.6047 1194.53 98.0918 1195.79 101.252L1198.57 100.148L1201.36 99.0436C1199.74 94.9655 1197.28 91.5872 1193.96 88.991L1192.11 91.3496ZM1198.57 100.148L1195.81 101.31C1197.12 104.412 1197.82 108.24 1197.82 112.877H1200.82H1203.81C1203.81 107.654 1203.02 102.997 1201.33 98.9854L1198.57 100.148ZM1200.82 112.877H1197.82C1197.82 120.657 1194.52 127.256 1187.54 132.808L1189.4 135.153L1191.26 137.497C1199.5 130.945 1203.81 122.692 1203.81 112.877H1200.82ZM1189.4 135.153L1187.53 132.816C1180.63 138.346 1171.54 141.236 1160.01 141.236V144.231V147.227C1172.56 147.227 1183.07 144.064 1191.27 137.489L1189.4 135.153Z" fill="white" fill-opacity="0.5" mask="url(#path-1-outside-1_1805_10)"/>
</svg>
