<svg width="100" height="88" viewBox="0 0 100 88" fill="none" xmlns="http://www.w3.org/2000/svg">
<path d="M45.5349 30.9773C47.7921 29.6742 51.4517 29.6742 53.7089 30.9773L97.5001 56.258C99.7568 57.561 99.7568 59.6737 97.5001 60.9768L53.7089 86.2574C51.4517 87.5605 47.7921 87.5605 45.5349 86.2574L1.74366 60.9768C-0.513517 59.6737 -0.513507 57.561 1.74366 56.258L45.5349 30.9773Z" fill="#F11D34"/>
<path d="M45.4841 16.6961C47.7412 15.393 51.4008 15.393 53.658 16.6961L97.4492 41.9767C99.7067 43.2798 99.7067 45.3925 97.4492 46.6956L53.658 71.9762C51.4008 73.2793 47.7412 73.2793 45.4841 71.9762L1.69288 46.6956C-0.564292 45.3925 -0.564292 43.2798 1.69288 41.9767L45.4841 16.6961Z" fill="#005FF3"/>
<path d="M45.4841 0.977302C47.7412 -0.325768 51.4008 -0.325768 53.658 0.977302L97.4492 26.258C99.7067 27.561 99.7067 29.6737 97.4492 30.9768L53.658 56.2575C51.4008 57.5605 47.7412 57.5605 45.4841 56.2575L1.69288 30.9768C-0.564292 29.6737 -0.564292 27.561 1.69288 26.258L45.4841 0.977302Z" fill="#F4F4F4"/>
</svg>
